<?xml version="1.0" encoding="UTF-8"?>
<svg version="1.1" xmlns="http://www.w3.org/2000/svg" width="190" height="199">
<path d="M0 0 C3.83253129 -0.20505665 7.66363766 -0.32820828 11.5 -0.4375 C13.11648437 -0.52547852 13.11648437 -0.52547852 14.765625 -0.61523438 C20.07568873 -0.72855891 23.94773284 -0.70648164 28.09375 2.83984375 C30.34970348 5.06166826 32.25014233 7.3331356 34.15380859 9.8684082 C38.23149909 14.81942766 41.33059775 18.02199044 47.85644531 19.02539062 C52.62180492 19.45826303 57.35414613 19.45641003 62.13427734 19.32421875 C65.12940946 19.24989057 68.11000794 19.28295496 71.10546875 19.328125 C82.94292815 19.53186276 82.94292815 19.53186276 92.6953125 13.5625 C93.83109426 12.06704898 94.93913238 10.54949471 96 9 C97.65191491 7.64843325 99.31522656 6.31037934 101 5 C101.64195312 4.14792969 102.28390625 3.29585937 102.9453125 2.41796875 C107.48211602 -1.17318391 111.51145382 -0.62316203 117.125 -0.4375 C118.62740234 -0.42879883 118.62740234 -0.42879883 120.16015625 -0.41992188 C127.55626076 -0.29582616 127.55626076 -0.29582616 131 2 C130.43410156 2.53109375 129.86820313 3.0621875 129.28515625 3.609375 C128.55167969 4.31578125 127.81820312 5.0221875 127.0625 5.75 C125.96615234 6.79414063 125.96615234 6.79414063 124.84765625 7.859375 C121.89224664 11.28340135 122 13.50779462 122 18 C122.60585937 18.08507812 123.21171875 18.17015625 123.8359375 18.2578125 C127.38117076 19.47368672 128.22412667 22.10902357 129.89453125 25.30078125 C131.70819522 29.72919751 132.40787839 34.27186474 133 39 C134.27310312 38.06558465 135.543388 37.12732889 136.8125 36.1875 C137.52019531 35.66542969 138.22789062 35.14335938 138.95703125 34.60546875 C141.00874525 33.06893533 141.00874525 33.06893533 142.63671875 31.30078125 C144 30 144 30 146 30 C145.98259766 31.55460937 145.98259766 31.55460937 145.96484375 33.140625 C145.95546163 34.51041486 145.94636188 35.88020668 145.9375 37.25 C145.92912109 37.93191406 145.92074219 38.61382812 145.91210938 39.31640625 C145.85812755 43.09606036 145.85812755 43.09606036 146.48413086 46.80273438 C147.19179399 49.81691715 147.2422822 52.73471498 147.3515625 55.828125 C147.37544037 56.49007874 147.39931824 57.15203247 147.42391968 57.83404541 C147.69104833 65.55423287 147.86697243 73.27645915 148 81 C148.01901367 81.97001953 148.03802734 82.94003906 148.05761719 83.93945312 C148.20121832 96.36837874 148.20121832 96.36837874 144.125 101.3125 C142.77001052 102.56369111 141.39203952 103.79016461 140 105 C138.58852237 106.46921085 137.1772369 107.93861779 135.77099609 109.4128418 C128.92651848 116.5678071 128.92651848 116.5678071 125 117 C124.98582031 118.02480469 124.97164062 119.04960938 124.95703125 120.10546875 C124.91010984 121.46618971 124.86186256 122.82686541 124.8125 124.1875 C124.80379883 125.19780273 124.80379883 125.19780273 124.79492188 126.22851562 C124.62821977 130.02561922 124.17067004 131.7974561 121.69921875 134.73046875 C120.80847656 135.47941406 119.91773438 136.22835937 119 137 C118.319375 137.70382813 117.63875 138.40765625 116.9375 139.1328125 C111.53719742 144.68554297 111.53719742 144.68554297 108.4375 146.5 C105.23675478 148.46968936 103.25267416 151.06618853 100.84765625 153.92578125 C98.1480813 156.9563823 95.14104525 159.43588143 92 162 C88.535 159.525 88.535 159.525 85 157 C85.05800781 157.86882812 85.11601563 158.73765625 85.17578125 159.6328125 C85.54560955 169.07928389 85.54560955 169.07928389 83 173.375 C82.01 174.24125 81.02 175.1075 80 176 C79.37222656 176.57105469 78.74445313 177.14210937 78.09765625 177.73046875 C76.09829111 179.53028113 74.06155826 181.2719882 72 183 C71.39027344 183.51304687 70.78054687 184.02609375 70.15234375 184.5546875 C68.77308919 185.70895728 67.38733192 186.85545117 66 188 C62.45815946 186.501529 60.27223438 184.45084115 57.625 181.6875 C55.00772595 179.00112301 52.41970502 176.41801081 49.5 174.0625 C46.69554679 171.7488261 46.13928619 171.00286057 45.6484375 167.46875 C45.51308594 165.99921875 45.51308594 165.99921875 45.375 164.5 C45.27960938 163.5203125 45.18421875 162.540625 45.0859375 161.53125 C45 159 45 159 46 157 C45.278125 157.680625 44.55625 158.36125 43.8125 159.0625 C41 161 41 161 38.625 161.1875 C34.56066686 159.3488731 31.94161249 156.29024805 29 153 C28.360625 152.29875 27.72125 151.5975 27.0625 150.875 C25.70198866 148.47409764 25.77384785 146.71382576 26 144 C24.906875 144.226875 23.81375 144.45375 22.6875 144.6875 C17.40890208 144.64020074 14.23353046 141.63621273 10.60107422 138.06201172 C5.19903557 131.93429728 5.58050791 124.77523711 6 117 C5.25129639 116.90251465 4.50259277 116.8050293 3.73120117 116.70458984 C0.63734422 115.90644278 -0.49189763 114.98848594 -2.69921875 112.7265625 C-3.35083984 112.0665625 -4.00246094 111.4065625 -4.67382812 110.7265625 C-5.33833984 110.03304687 -6.00285156 109.33953125 -6.6875 108.625 C-7.36361328 107.93921875 -8.03972656 107.2534375 -8.73632812 106.546875 C-16.25197947 98.85922367 -16.25197947 98.85922367 -16.24291992 92.27856445 C-16.24599655 91.10336746 -16.24907318 89.92817047 -16.25224304 88.71736145 C-16.24505753 87.44551498 -16.23787201 86.17366852 -16.23046875 84.86328125 C-16.23001053 83.55473679 -16.22955231 82.24619232 -16.2290802 80.897995 C-16.22751567 78.1247325 -16.21923358 75.35159913 -16.20581055 72.57836914 C-16.18890387 69.04244376 -16.18499399 65.50666133 -16.18575573 61.97070026 C-16.18541631 58.58070852 -16.17656006 55.19076251 -16.16796875 51.80078125 C-16.16685593 50.53905594 -16.1657431 49.27733063 -16.16459656 47.97737122 C-16.132003 41.89297428 -15.9384136 36.01473977 -15 30 C-11.25913583 31.24695472 -9.74204747 33.19266568 -7 36 C-5.35135455 37.35555293 -3.68996005 38.69631653 -2 40 C-2.061875 39.030625 -2.12375 38.06125 -2.1875 37.0625 C-2.15625438 29.34483207 0.77347806 23.48784804 6 18 C6.928125 17.195625 6.928125 17.195625 7.875 16.375 C9.19788681 15.05423564 9.19788681 15.05423564 9 13.125 C7.59651219 10.14258841 5.34334358 8.28325785 3 6 C3 5.34 3 4.68 3 4 C2.01 3.67 1.02 3.34 0 3 C0 2.01 0 1.02 0 0 Z " fill="#2E3740" transform="translate(30,7)"/>
<path d="M0 0 C5.4589258 4.4884501 10.41631872 9.36568993 15.3515625 14.4140625 C17.94228058 17.0393863 17.94228058 17.0393863 20.8359375 19.2109375 C21.55007812 19.80132812 22.26421875 20.39171875 23 21 C23 21.66 23 22.32 23 23 C23.99 23.33 24.98 23.66 26 24 C27.68711423 25.6459651 29.3545622 27.31237149 31 29 C31.66 29.33 32.32 29.66 33 30 C33 30.66 33 31.32 33 32 C35.64 32 38.28 32 41 32 C41.33 32.66 41.66 33.32 42 34 C40.35 34.66 38.7 35.32 37 36 C37 36.66 37 37.32 37 38 C35.02 38.495 35.02 38.495 33 39 C32.01 42.96 31.02 46.92 30 51 C28.02 51.495 28.02 51.495 26 52 C24.11328125 50.8203125 24.11328125 50.8203125 22.3125 49.125 C21.40951172 48.29355469 21.40951172 48.29355469 20.48828125 47.4453125 C19.65402963 46.63514688 18.82229681 45.82229681 18 45 C18 45.99 18 46.98 18 48 C18.72541992 48.2371875 19.45083984 48.474375 20.19824219 48.71875 C23.44859541 50.20514366 25.31915804 51.96191738 27.828125 54.5 C28.70984375 55.386875 29.5915625 56.27375 30.5 57.1875 C31.86125 58.5796875 31.86125 58.5796875 33.25 60 C34.17296875 60.928125 35.0959375 61.85625 36.046875 62.8125 C42.84561012 69.69122024 42.84561012 69.69122024 44 72 C44.66 71.34 45.32 70.68 46 70 C45.69964844 69.45730469 45.39929687 68.91460937 45.08984375 68.35546875 C44.70957031 67.64003906 44.32929687 66.92460938 43.9375 66.1875 C43.55464844 65.47980469 43.17179687 64.77210937 42.77734375 64.04296875 C42 62 42 62 43 59 C43.33 59.99 43.66 60.98 44 62 C44.5775 61.814375 45.155 61.62875 45.75 61.4375 C48 61 48 61 50.125 61.5625 C50.74375 61.706875 51.3625 61.85125 52 62 C54.38771735 59.61228265 54.31289224 58.77145486 54.5625 55.5 C54.90540541 51.18918919 54.90540541 51.18918919 56 49 C58 49 58 49 60.375 51.1875 C63 54 63 54 64.8125 56.375 C67.32519949 59.39023939 70.11591159 61.80706625 73.09375 64.3515625 C75.16400548 66.14182441 77.10475378 68.02578518 79 70 C83.17499164 68.62448071 85.58125593 66.77422864 88.64453125 63.6484375 C89.48564453 62.79765625 90.32675781 61.946875 91.19335938 61.0703125 C92.05767578 60.18085937 92.92199219 59.29140625 93.8125 58.375 C94.69615234 57.4778125 95.57980469 56.580625 96.49023438 55.65625 C98.66707425 53.44411002 100.83659664 51.22526927 103 49 C104.485 49.495 104.485 49.495 106 50 C106.495 53.465 106.495 53.465 107 57 C109.97 57.66 112.94 58.32 116 59 C115.67 60.65 115.34 62.3 115 64 C113.515 64.495 113.515 64.495 112 65 C112.99 67.31 113.98 69.62 115 72 C115.45375 71.505 115.9075 71.01 116.375 70.5 C118 69 118 69 120 69 C120 68.34 120 67.68 120 67 C120.66 67 121.32 67 122 67 C122 66.34 122 65.68 122 65 C122.66 65 123.32 65 124 65 C124.495 63.515 124.495 63.515 125 62 C126.7421875 60.31640625 126.7421875 60.31640625 128.875 58.5625 C131.68861414 56.24204701 133.90741794 53.99410327 136 51 C135.21625 51.825 134.4325 52.65 133.625 53.5 C131 56 131 56 129 56 C128.08342019 50.61509359 127.88861841 45.45769811 128 40 C127.01 39.67 126.02 39.34 125 39 C124.67 38.01 124.34 37.02 124 36 C121.49552484 34.78130071 121.49552484 34.78130071 119 34 C119 33.34 119 32.68 119 32 C120.24652344 32.06445312 121.49304688 32.12890625 122.77734375 32.1953125 C130.24353052 31.35680904 134.72220184 25.0746285 139.5625 19.875 C141.05180416 18.31281654 142.54692245 16.75636265 144.04257202 15.20025635 C145.00937227 14.19426722 145.97442962 13.18659992 146.93765259 12.17718506 C154.622052 4.15965809 154.622052 4.15965809 159 1 C159.66 1 160.32 1 161 1 C162.09580895 4.60643149 162.21888214 8.07232654 162.3515625 11.828125 C162.37544037 12.49007874 162.39931824 13.15203247 162.42391968 13.83404541 C162.69104833 21.55423287 162.86697243 29.27645915 163 37 C163.01901367 37.97001953 163.03802734 38.94003906 163.05761719 39.93945312 C163.20121832 52.36837874 163.20121832 52.36837874 159.125 57.3125 C157.77001052 58.56369111 156.39203952 59.79016461 155 61 C153.58852237 62.46921085 152.1772369 63.93861779 150.77099609 65.4128418 C143.92651848 72.5678071 143.92651848 72.5678071 140 73 C139.98582031 74.02480469 139.97164062 75.04960938 139.95703125 76.10546875 C139.91010984 77.46618971 139.86186256 78.82686541 139.8125 80.1875 C139.80379883 81.19780273 139.80379883 81.19780273 139.79492188 82.22851562 C139.62821977 86.02561922 139.17067004 87.7974561 136.69921875 90.73046875 C135.80847656 91.47941406 134.91773438 92.22835937 134 93 C133.319375 93.70382813 132.63875 94.40765625 131.9375 95.1328125 C126.53719742 100.68554297 126.53719742 100.68554297 123.4375 102.5 C120.23675478 104.46968936 118.25267416 107.06618853 115.84765625 109.92578125 C113.1480813 112.9563823 110.14104525 115.43588143 107 118 C104.69 116.35 102.38 114.7 100 113 C100.05800781 113.86882812 100.11601563 114.73765625 100.17578125 115.6328125 C100.54560955 125.07928389 100.54560955 125.07928389 98 129.375 C97.01 130.24125 96.02 131.1075 95 132 C94.37222656 132.57105469 93.74445313 133.14210937 93.09765625 133.73046875 C91.09829111 135.53028113 89.06155826 137.2719882 87 139 C86.39027344 139.51304687 85.78054687 140.02609375 85.15234375 140.5546875 C83.77308919 141.70895728 82.38733192 142.85545117 81 144 C77.45815946 142.501529 75.27223438 140.45084115 72.625 137.6875 C70.00772595 135.00112301 67.41970502 132.41801081 64.5 130.0625 C61.69554679 127.7488261 61.13928619 127.00286057 60.6484375 123.46875 C60.55820313 122.4890625 60.46796875 121.509375 60.375 120.5 C60.27960938 119.5203125 60.18421875 118.540625 60.0859375 117.53125 C60 115 60 115 61 113 C60.278125 113.680625 59.55625 114.36125 58.8125 115.0625 C56 117 56 117 53.625 117.1875 C49.56066686 115.3488731 46.94161249 112.29024805 44 109 C43.0409375 107.948125 43.0409375 107.948125 42.0625 106.875 C40.70198866 104.47409764 40.77384785 102.71382576 41 100 C39.906875 100.226875 38.81375 100.45375 37.6875 100.6875 C32.40890208 100.64020074 29.23353046 97.63621273 25.60107422 94.06201172 C20.19903557 87.93429728 20.58050791 80.77523711 21 73 C20.25129639 72.90251465 19.50259277 72.8050293 18.73120117 72.70458984 C15.63734422 71.90644278 14.50810237 70.98848594 12.30078125 68.7265625 C11.64916016 68.0665625 10.99753906 67.4065625 10.32617188 66.7265625 C9.66166016 66.03304687 8.99714844 65.33953125 8.3125 64.625 C7.63638672 63.93921875 6.96027344 63.2534375 6.26367188 62.546875 C-1.25225714 54.85893965 -1.25225714 54.85893965 -1.24291992 49.02539062 C-1.24599655 48.01424194 -1.24907318 47.00309326 -1.25224304 45.96130371 C-1.24505753 44.87063599 -1.23787201 43.77996826 -1.23046875 42.65625 C-1.23001053 41.53561157 -1.22955231 40.41497314 -1.2290802 39.26037598 C-1.22605777 36.88988181 -1.21817176 34.51938964 -1.20581055 32.14892578 C-1.18757315 28.51457708 -1.18530074 24.8804834 -1.18554688 21.24609375 C-1.18063093 18.94531029 -1.17480227 16.64452856 -1.16796875 14.34375 C-1.16685593 13.25308228 -1.1657431 12.16241455 -1.16459656 11.03869629 C-1.15821671 10.02754761 -1.15183685 9.01639893 -1.14526367 7.97460938 C-1.14145187 7.0843103 -1.13764008 6.19401123 -1.13371277 5.2767334 C-1 3 -1 3 0 0 Z " fill="#161E23" transform="translate(15,51)"/>
<path d="M0 0 C3.83253129 -0.20505665 7.66363766 -0.32820828 11.5 -0.4375 C13.11648437 -0.52547852 13.11648437 -0.52547852 14.765625 -0.61523438 C20.07568873 -0.72855891 23.94773284 -0.70648164 28.09375 2.83984375 C30.34970348 5.06166826 32.25014233 7.3331356 34.15380859 9.8684082 C38.23149909 14.81942766 41.33059775 18.02199044 47.85644531 19.02539062 C52.62180492 19.45826303 57.35414613 19.45641003 62.13427734 19.32421875 C65.12940946 19.24989057 68.11000794 19.28295496 71.10546875 19.328125 C82.94292815 19.53186276 82.94292815 19.53186276 92.6953125 13.5625 C93.83109426 12.06704898 94.93913238 10.54949471 96 9 C97.65191491 7.64843325 99.31522656 6.31037934 101 5 C101.64195312 4.14792969 102.28390625 3.29585937 102.9453125 2.41796875 C107.48211602 -1.17318391 111.51145382 -0.62316203 117.125 -0.4375 C118.62740234 -0.42879883 118.62740234 -0.42879883 120.16015625 -0.41992188 C127.55626076 -0.29582616 127.55626076 -0.29582616 131 2 C130.43410156 2.55429688 129.86820313 3.10859375 129.28515625 3.6796875 C128.55167969 4.40414063 127.81820312 5.12859375 127.0625 5.875 C125.96615234 6.95394531 125.96615234 6.95394531 124.84765625 8.0546875 C122.94332001 9.87027192 122.94332001 9.87027192 122 12 C121.01 12 120.02 12 119 12 C118.67 12.99 118.34 13.98 118 15 C116.58520508 16.38916016 116.58520508 16.38916016 114.70703125 17.9140625 C110.97543227 21.07880471 107.50700502 24.41849739 104.07421875 27.8984375 C103.55570343 28.42262268 103.03718811 28.94680786 102.50296021 29.48687744 C100.34468349 31.67219006 98.1906649 33.86161515 96.04077148 36.05517578 C94.45209969 37.67394773 92.85734318 39.28652266 91.26171875 40.8984375 C90.77732834 41.39628754 90.29293793 41.89413757 89.79386902 42.40707397 C87.52385772 44.6939624 86.10859844 45.96380052 83 47 C80.5101346 49.3031255 78.31288415 51.57123283 76.3125 54.3125 C75.879375 54.869375 75.44625 55.42625 75 56 C74.34 56 73.68 56 73 56 C72.505 56.99 72.505 56.99 72 58 C69.42595029 61.86107457 67.38979741 61.94319692 63 63 C62.67 62.01 62.34 61.02 62 60 C60.67661368 59.31379969 59.34050052 58.65213539 58 58 C55.85832084 56.43955895 53.96955738 54.79050671 52 53 C52 52.34 52 51.68 52 51 C51.443125 50.773125 50.88625 50.54625 50.3125 50.3125 C47.35308639 48.63283282 45.37591214 46.43248148 43 44 C42.01 43.175 41.02 42.35 40 41.5 C37.15242297 39.12701914 34.6039219 36.63499032 32 34 C30.80407227 32.80407227 30.80407227 32.80407227 29.58398438 31.58398438 C11 13 11 13 8.38085938 10.31835938 C6.0303054 7.88799494 6.0303054 7.88799494 3 6 C3 5.34 3 4.68 3 4 C2.01 3.67 1.02 3.34 0 3 C0 2.01 0 1.02 0 0 Z " fill="#485664" transform="translate(30,7)"/>
<path d="M0 0 C0.99 0.33 1.98 0.66 3 1 C3 1.66 3 2.32 3 3 C3.66 3 4.32 3 5 3 C5 3.66 5 4.32 5 5 C6.98 5 8.96 5 11 5 C11.061875 5.7425 11.12375 6.485 11.1875 7.25 C12.24185138 10.8185739 13.99909773 11.92245228 17 14 C17 13.34 17 12.68 17 12 C17.99 11.67 18.98 11.34 20 11 C20.33 13.31 20.66 15.62 21 18 C21.99 18.33 22.98 18.66 24 19 C23.67 20.32 23.34 21.64 23 23 C22.01 22.67 21.02 22.34 20 22 C20.33 23.98 20.66 25.96 21 28 C22.65 28 24.3 28 26 28 C26 30.31 26 32.62 26 35 C26.66 35 27.32 35 28 35 C27.54177532 31.53058454 27.10868317 28.32604951 26 25 C26.721875 25.103125 27.44375 25.20625 28.1875 25.3125 C32.12041589 24.87550935 33.46321923 22.89917803 36 20 C36.66 20.33 37.32 20.66 38 21 C35.69 23.64 33.38 26.28 31 29 C33.49552484 28.21869929 33.49552484 28.21869929 36 27 C36.495 25.515 36.495 25.515 37 24 C37.66 24 38.32 24 39 24 C39.33 23.34 39.66 22.68 40 22 C40.495 23.98 40.495 23.98 41 26 C41.598125 25.030625 42.19625 24.06125 42.8125 23.0625 C45 20 45 20 48 19 C48.30487331 21.54161712 48.5693358 24.07735304 48.8125 26.625 C48.90208984 27.33785156 48.99167969 28.05070312 49.08398438 28.78515625 C49.45857473 33.08308773 49.28206837 34.58475998 46.7578125 38.30078125 C42.3021666 42.66176045 42.3021666 42.66176045 40.0625 44.5625 C39.38316406 45.14257812 38.70382813 45.72265625 38.00390625 46.3203125 C37.34261719 46.87460938 36.68132812 47.42890625 36 48 C35.39027344 48.51304687 34.78054687 49.02609375 34.15234375 49.5546875 C32.77308919 50.70895728 31.38733192 51.85545117 30 53 C26.45815946 51.501529 24.27223438 49.45084115 21.625 46.6875 C19.00772595 44.00112301 16.41970502 41.41801081 13.5 39.0625 C10.69554679 36.7488261 10.13928619 36.00286057 9.6484375 32.46875 C9.55820313 31.4890625 9.46796875 30.509375 9.375 29.5 C9.27960938 28.5203125 9.18421875 27.540625 9.0859375 26.53125 C9 24 9 24 10 22 C8.9171875 23.0209375 8.9171875 23.0209375 7.8125 24.0625 C5 26 5 26 2.625 26.1875 C-2.4668162 23.88405934 -7.18132439 18.80832898 -10 14 C-10 12.68 -10 11.36 -10 10 C-7.46277769 7.62824871 -5.11705122 5.55852561 -2 4 C-0.86649466 1.98330173 -0.86649466 1.98330173 0 0 Z " fill="#1B2228" transform="translate(66,142)"/>
<path d="M0 0 C6.00923442 5.00899774 11.4765562 10.40941859 16.95117188 15.99023438 C20.92685999 20.01219626 24.99790564 23.84201084 29.28930664 27.52636719 C31.30450182 29.26230526 33.23162428 31.01057732 35 33 C35 33.66 35 34.32 35 35 C35.556875 35.226875 36.11375 35.45375 36.6875 35.6875 C39.64691361 37.36716718 41.62408786 39.56751852 44 42 C47.86903895 45.85310787 47.86903895 45.85310787 53 47 C53 47.99 53 48.98 53 50 C53.99 50.495 53.99 50.495 55 51 C55.495 50.01 55.495 50.01 56 49 C57.32 49 58.64 49 60 49 C60.268125 48.360625 60.53625 47.72125 60.8125 47.0625 C62 45 62 45 65 44 C65.4640625 43.071875 65.4640625 43.071875 65.9375 42.125 C67.21365706 39.57268588 68.70791065 38.64743922 71 37 C71.66 36.01 72.32 35.02 73 34 C74.09803955 33.35998047 74.09803955 33.35998047 75.21826172 32.70703125 C78.8376576 30.48596613 81.54360966 27.70470983 84.5078125 24.6875 C85.115112 24.07737061 85.7224115 23.46724121 86.34811401 22.83862305 C88.27851186 20.89708226 90.20182941 18.94869727 92.125 17 C93.42531694 15.68964325 94.72609358 14.37974251 96.02734375 13.0703125 C98.89246057 10.18559591 101.75313234 7.29655482 104.6098938 4.40356445 C105.29799637 3.70880005 105.29799637 3.70880005 106 3 C106.51215057 2.44594482 107.02430115 1.89188965 107.55197144 1.32104492 C109 0 109 0 111 0 C111.99 3.465 111.99 3.465 113 7 C89.9543457 30.0456543 89.9543457 30.0456543 88.44726562 31.55187988 C87.04852693 32.95144441 85.65274912 34.35396615 84.25708008 35.7565918 C82.03059294 37.96959237 79.73176185 40.05199543 77.375 42.125 C74.51651925 44.65923517 71.74736667 47.22367119 69.1171875 49.9921875 C68.63846191 50.49218262 68.15973633 50.99217773 67.66650391 51.50732422 C66.3140544 52.93250111 64.97692842 54.37217296 63.640625 55.8125 C60.62861061 58.30765985 58.86320988 58.78860685 55 59 C49.87167682 58.12709393 47.34695133 55.66168827 43.93518066 51.99781799 C42.13590562 50.14030457 40.28474003 48.46898026 38.31445312 46.79663086 C33.78909292 42.87191717 29.56331521 38.69015851 25.34375 34.44140625 C24.55601196 33.65225327 23.76827393 32.86310028 22.95666504 32.05003357 C20.46872898 29.55654988 17.98431376 27.05959216 15.5 24.5625 C13.8023159 22.85979413 12.10440142 21.15731793 10.40625 19.45507812 C6.2681672 15.30603588 2.13296065 11.15414424 -2 7 C-1.34 4.69 -0.68 2.38 0 0 Z " fill="#070C0F" transform="translate(40,19)"/>
<path d="M0 0 C0 0.66 0 1.32 0 2 C1.65 1.34 3.3 0.68 5 0 C5.27714844 0.56589844 5.55429688 1.13179688 5.83984375 1.71484375 C6.38318359 2.81505859 6.38318359 2.81505859 6.9375 3.9375 C7.29714844 4.66839844 7.65679687 5.39929688 8.02734375 6.15234375 C8.86371827 7.96249027 8.86371827 7.96249027 10 9 C9.98827033 11.29315132 9.89042196 13.58612206 9.75 15.875 C9.68296875 17.13054687 9.6159375 18.38609375 9.546875 19.6796875 C9 23 9 23 7.71484375 24.96484375 C4.53148017 26.88646413 1.52682711 25.63598522 -2 25 C-1.30058404 28.14737182 -0.23921302 31.02588876 1 34 C-3 34 -3 34 -5.24609375 32.01171875 C-6.16805993 31.0114824 -7.08547064 30.00704043 -8 29 C-9.2775366 27.68910379 -10.56052549 26.38350851 -11.84765625 25.08203125 C-12.53537109 24.38529297 -13.22308594 23.68855469 -13.93164062 22.97070312 C-14.98641602 21.90239258 -14.98641602 21.90239258 -16.0625 20.8125 C-16.76955078 20.08869141 -17.47660156 19.36488281 -18.20507812 18.61914062 C-18.89150391 17.92626953 -19.57792969 17.23339844 -20.28515625 16.51953125 C-20.90269775 15.89151611 -21.52023926 15.26350098 -22.15649414 14.61645508 C-23.94000492 12.9138152 -23.94000492 12.9138152 -26.18530273 11.9128418 C-28 11 -28 11 -28.75 8.875 C-28.8325 8.25625 -28.915 7.6375 -29 7 C-28.34 7 -27.68 7 -27 7 C-27 7.66 -27 8.32 -27 9 C-26.401875 9.268125 -25.80375 9.53625 -25.1875 9.8125 C-23 11 -23 11 -21.5 12.625 C-19.847706 14.45048309 -19.847706 14.45048309 -16 14 C-15.89042969 13.31292969 -15.78085937 12.62585938 -15.66796875 11.91796875 C-15.43013672 10.56638672 -15.43013672 10.56638672 -15.1875 9.1875 C-14.96126953 7.84751953 -14.96126953 7.84751953 -14.73046875 6.48046875 C-13.93007105 3.76254073 -13.20872974 2.72506629 -11 1 C-6.91195995 -0.77740872 -4.29585623 -1.26348713 0 0 Z " fill="#164752" transform="translate(61,88)"/>
<path d="M0 0 C0 0.66 0 1.32 0 2 C0.639375 2.268125 1.27875 2.53625 1.9375 2.8125 C4 4 4 4 5 7 C5.66 7 6.32 7 7 7 C7.70173653 11.38585329 8.10834375 15.55790643 8 20 C10.64 17.69 13.28 15.38 16 13 C16 16 16 16 14.7578125 17.60546875 C13.94957031 18.38857422 13.94957031 18.38857422 13.125 19.1875 C12.59132812 19.71730469 12.05765625 20.24710938 11.5078125 20.79296875 C10 22 10 22 8 22 C7.731875 22.598125 7.46375 23.19625 7.1875 23.8125 C6.00082594 25.99847854 4.90400887 27.41332594 3 29 C2.34 29 1.68 29 1 29 C1 29.66 1 30.32 1 31 C0.34 31 -0.32 31 -1 31 C-1 31.66 -1 32.32 -1 33 C-2.96147874 34.38938077 -4.96166576 35.7260411 -7 37 C-7 36.01 -7 35.02 -7 34 C-7.66 33.67 -8.32 33.34 -9 33 C-9.625 30.4375 -9.625 30.4375 -10 28 C-8.68 27.34 -7.36 26.68 -6 26 C-6 25.34 -6 24.68 -6 24 C-8.97 23.01 -11.94 22.02 -15 21 C-17.4173913 12.04347826 -17.4173913 12.04347826 -15.875 8.1875 C-15.25625 7.465625 -14.6375 6.74375 -14 6 C-13.360625 5.113125 -12.72125 4.22625 -12.0625 3.3125 C-8.11436193 -1.11420026 -5.74041549 -1.30463988 0 0 Z " fill="#134C5B" transform="translate(136,87)"/>
<path d="M0 0 C4.17800748 1.62311082 6.89891892 4.71123394 9.9375 7.875 C12.81952752 10.8549077 15.61043487 13.69447945 18.87890625 16.2578125 C19.57886719 16.83273438 20.27882813 17.40765625 21 18 C21 18.66 21 19.32 21 20 C21.99 20.33 22.98 20.66 24 21 C25.68711423 22.6459651 27.3545622 24.31237149 29 26 C29.66 26.33 30.32 26.66 31 27 C31 27.66 31 28.32 31 29 C33.64 29 36.28 29 39 29 C39.495 29.99 39.495 29.99 40 31 C38.35 31.66 36.7 32.32 35 33 C35 33.66 35 34.32 35 35 C33.02 35.495 33.02 35.495 31 36 C30.01 39.96 29.02 43.92 28 48 C24 49 24 49 22.078125 47.85546875 C21.47484375 47.30503906 20.8715625 46.75460938 20.25 46.1875 C19.32960938 45.37345703 19.32960938 45.37345703 18.390625 44.54296875 C17 43 17 43 17 41 C15.515 40.505 15.515 40.505 14 40 C12.265625 38.52734375 12.265625 38.52734375 11 36 C10.94182131 31.9750044 11.5496342 27.97691022 12.11328125 23.99804688 C12.3595681 21.5019492 12.49681857 19.46198683 12 17 C10.3823232 15.2095642 8.82930057 14.14687677 6.72924805 12.97119141 C4.48858874 11.71277792 3.29001035 10.2006059 2 8 C2 7.34 2 6.68 2 6 C1.01 5.67 0.02 5.34 -1 5 C-0.67 3.35 -0.34 1.7 0 0 Z " fill="#101B20" transform="translate(17,54)"/>
<path d="M0 0 C3.71045247 1.57780923 6.29906384 3.90703248 9.25 6.625 C10.14203125 7.44226563 11.0340625 8.25953125 11.953125 9.1015625 C12.96632813 10.04128906 12.96632813 10.04128906 14 11 C13.24460938 11.58007812 12.48921875 12.16015625 11.7109375 12.7578125 C9.37041531 14.69363345 7.54465532 16.5433211 5.625 18.875 C2.37244507 22.69228425 -1.11784351 25.83089266 -5 29 C-7.31 27.35 -9.62 25.7 -12 24 C-12 27.96 -12 31.92 -12 36 C-12.33 36 -12.66 36 -13 36 C-13.33 31.38 -13.66 26.76 -14 22 C-17.16605307 24.11070205 -18.19587357 25.73539027 -20 29 C-20.66 28.34 -21.32 27.68 -22 27 C-22.66 26.67 -23.32 26.34 -24 26 C-24.33 27.32 -24.66 28.64 -25 30 C-26.65 30.33 -28.3 30.66 -30 31 C-28.55922954 27.63820226 -26.75249979 25.40843732 -24 23 C-23.34 23 -22.68 23 -22 23 C-22 22.34 -22 21.68 -22 21 C-21.34 21 -20.68 21 -20 21 C-19.67 20.01 -19.34 19.02 -19 18 C-17.46875 16.4921875 -17.46875 16.4921875 -15.5 14.875 C-11.36623806 11.39040284 -7.6216851 7.62437174 -3.8828125 3.72265625 C-2 2 -2 2 0 2 C0 1.34 0 0.68 0 0 Z " fill="#0D1216" transform="translate(127,140)"/>
<path d="M0 0 C4.15653848 1.38551283 4.85580673 3.55314301 6.859375 7.30078125 C8.72626183 11.71865385 9.40684999 16.26365291 10 21 C11.27310312 20.06558465 12.543388 19.12732889 13.8125 18.1875 C14.52019531 17.66542969 15.22789062 17.14335938 15.95703125 16.60546875 C18.00874525 15.06893533 18.00874525 15.06893533 19.63671875 13.30078125 C21 12 21 12 23 12 C24.22021756 24.06659591 24.22021756 24.06659591 21.2890625 28.7109375 C19.28198911 30.71801089 17.38331723 32.45897962 15 34 C14.34 34 13.68 34 13 34 C13 31.03 13 28.06 13 25 C10.69 25.33 8.38 25.66 6 26 C4.97515433 23.15320648 5.06104517 21.62694619 5.5625 18.5625 C6.01581795 14.87119667 5.6727223 13.24704916 4 10 C3.01 10 2.02 10 1 10 C1 8.68 1 7.36 1 6 C0.01 6.33 -0.98 6.66 -2 7 C-1.505 8.485 -1.505 8.485 -1 10 C-1.66 10 -2.32 10 -3 10 C-3.33 11.98 -3.66 13.96 -4 16 C-7.43515002 16.62457273 -10.49064814 17 -14 17 C-14.268125 18.134375 -14.53625 19.26875 -14.8125 20.4375 C-15.204375 21.613125 -15.59625 22.78875 -16 24 C-16.99 24.33 -17.98 24.66 -19 25 C-19.66 24.67 -20.32 24.34 -21 24 C-21.33 24.99 -21.66 25.98 -22 27 C-21.01 27.33 -20.02 27.66 -19 28 C-19.33 28.99 -19.66 29.98 -20 31 C-21.85546875 31.58984375 -21.85546875 31.58984375 -24.1875 31.9375 C-30.53365402 33.1563645 -34.64120178 36.30590961 -39 41 C-39.66 40.67 -40.32 40.34 -41 40 C-39.28450285 38.28450285 -37.56876947 36.56925499 -35.8515625 34.85546875 C-34.45390528 33.45486289 -33.06785453 32.04266141 -31.6875 30.625 C-29.46730923 28.45644158 -27.20610665 26.42025419 -24.875 24.375 C-16.21057862 16.64834374 -8.16464557 8.24636746 0 0 Z " fill="#53616D" transform="translate(153,25)"/>
<path d="M0 0 C1.32 0.33 2.64 0.66 4 1 C3.80824089 12.90649762 3.80824089 12.90649762 0.875 16.875 C-0.07375 17.57625 -1.0225 18.2775 -2 19 C-3.28671687 20.25474875 -4.55703798 21.52647907 -5.8125 22.8125 C-6.875 23.875 -7.9375 24.9375 -9 26 C-13.04161955 24.65515286 -15.38678154 22.9494838 -18.3125 19.875 C-19.00988281 19.15054688 -19.70726562 18.42609375 -20.42578125 17.6796875 C-20.94527344 17.12539062 -21.46476563 16.57109375 -22 16 C-20 15 -20 15 -17.5625 14.625 C-14.63751904 13.91159001 -13.7503311 13.4171239 -12 11 C-10.79950593 7.89992799 -10.79950593 7.89992799 -10 5 C-8.906875 4.9175 -7.81375 4.835 -6.6875 4.75 C-2.96723336 4.36310791 -2.96723336 4.36310791 -1.0625 1.9375 C-0.5365625 0.9784375 -0.5365625 0.9784375 0 0 Z " fill="#1D2328" transform="translate(151,125)"/>
<path d="M0 0 C-0.52393307 4.06402139 -1.59729777 6.13633304 -4.375 9.125 C-5.28378906 10.11886719 -5.28378906 10.11886719 -6.2109375 11.1328125 C-7.3320429 12.30287446 -8.47996427 13.44841733 -9.6640625 14.5546875 C-11.25401441 16.07584115 -11.25401441 16.07584115 -12 19 C-14 20 -16 21 -18 22 C-19.98239527 23.86124923 -19.98239527 23.86124923 -21 26 C-20.67 26.99 -20.34 27.98 -20 29 C-20.66 29.66 -21.32 30.32 -22 31 C-22.99 30.67 -23.98 30.34 -25 30 C-25.20625 30.61875 -25.4125 31.2375 -25.625 31.875 C-27.54852763 34.84772451 -29.67956655 35.03154024 -33 36 C-35.09402962 37.92744427 -35.09402962 37.92744427 -36.4375 40.4375 C-39.02739726 44.68493151 -39.02739726 44.68493151 -41 46 C-44.1875 45.6875 -44.1875 45.6875 -47 45 C-43.49925018 40.82556637 -40.02049157 36.6854506 -36 33 C-35.34 33 -34.68 33 -34 33 C-33.73082764 32.40034424 -33.46165527 31.80068848 -33.18432617 31.18286133 C-31.99419318 28.9892973 -30.89262121 27.73144869 -29.05078125 26.07421875 C-28.45676514 25.53168457 -27.86274902 24.98915039 -27.25073242 24.43017578 C-26.29130737 23.56755127 -26.29130737 23.56755127 -25.3125 22.6875 C-18.9223033 16.85491072 -12.76850948 10.83863329 -6.74926758 4.6237793 C-6.15525146 4.01832275 -5.56123535 3.41286621 -4.94921875 2.7890625 C-4.42674561 2.24975098 -3.90427246 1.71043945 -3.3659668 1.15478516 C-2 0 -2 0 0 0 Z " fill="#05090C" transform="translate(176,95)"/>
<path d="M0 0 C13.86 0 27.72 0 42 0 C41.34 2.31 40.68 4.62 40 7 C31.89791746 9.70069418 22.3151232 7.8721084 13.9375 7.125 C13.0088916 7.04660889 12.0802832 6.96821777 11.12353516 6.88745117 C10.24616699 6.80342041 9.36879883 6.71938965 8.46484375 6.6328125 C7.28329712 6.52283936 7.28329712 6.52283936 6.07788086 6.41064453 C4 6 4 6 1 4 C0.67 2.68 0.34 1.36 0 0 Z " fill="#4E5F6F" transform="translate(74,27)"/>
<path d="M0 0 C4.08476728 3.38948774 7.8772589 6.86484313 11.5625 10.6875 C14.86671316 14.04829215 17.60967494 16.31141344 22 18 C21.04270084 19.12588014 20.08412105 20.2506715 19.125 21.375 C18.59132813 22.00148437 18.05765625 22.62796875 17.5078125 23.2734375 C16.38567993 24.55836651 15.20628025 25.79371975 14 27 C8.9116623 26.66887173 5.53501026 22.6070729 2.15625 19.18359375 C-1.64391123 13.57284845 -1.50656537 7.65403666 -1 1 C-0.67 0.67 -0.34 0.34 0 0 Z " fill="#222A30" transform="translate(37,124)"/>
<path d="M0 0 C0.66 1.32 1.32 2.64 2 4 C1.21625 4.268125 0.4325 4.53625 -0.375 4.8125 C-3.28114923 5.84814432 -3.28114923 5.84814432 -5 9 C-4.01 9.66 -3.02 10.32 -2 11 C-1.01 10.34 -0.02 9.68 1 9 C1.66 8.87625 2.32 8.7525 3 8.625 C5.68428071 7.78616228 6.40790958 6.24340014 8 4 C8.66 4 9.32 4 10 4 C8.42027458 8.11891598 5.41784655 10.59776367 2.1875 13.4375 C-1.65415696 16.86127586 -5.38801436 20.32956799 -9 24 C-12 27 -15 30 -18 33 C-18.66 32.67 -19.32 32.34 -20 32 C-18.73046875 30.53515625 -17.4609375 29.0703125 -16.19140625 27.60546875 C-14.79128769 25.89287029 -14.79128769 25.89287029 -14 23 C-14.99 22.67 -15.98 22.34 -17 22 C-17 21.01 -17 20.02 -17 19 C-18.32 19.33 -19.64 19.66 -21 20 C-19.74160485 16.22481455 -18.44096192 15.80240862 -15 14 C-14.01 13.67 -13.02 13.34 -12 13 C-12 12.34 -12 11.68 -12 11 C-11.34 11 -10.68 11 -10 11 C-10 10.34 -10 9.68 -10 9 C-9.34 9 -8.68 9 -8 9 C-7.67 8.01 -7.34 7.02 -7 6 C-5.37109375 4.39453125 -5.37109375 4.39453125 -3.4375 2.8125 C-2.47650391 2.01779297 -2.47650391 2.01779297 -1.49609375 1.20703125 C-1.00238281 0.80871094 -0.50867188 0.41039063 0 0 Z " fill="#1E292F" transform="translate(147,107)"/>
<path d="M0 0 C0.66 2.31 1.32 4.62 2 7 C-6.58 15.58 -15.16 24.16 -24 33 C-24.66 32.34 -25.32 31.68 -26 31 C-25.01 30.67 -24.02 30.34 -23 30 C-24.3089572 26.87802522 -24.3089572 26.87802522 -27 25 C-19.66666667 17.66666667 -12.33333333 10.33333333 -5 3 C-4.44094971 2.39969971 -3.88189941 1.79939941 -3.3059082 1.1809082 C-2 0 -2 0 0 0 Z " fill="#0C1115" transform="translate(151,19)"/>
<path d="M0 0 C0.66 0.33 1.32 0.66 2 1 C0.07123934 7.91139238 -3.77840595 12.19063706 -9 17 C-9.66 17 -10.32 17 -11 17 C-11 17.99 -11 18.98 -11 20 C-12.57421875 21.578125 -12.57421875 21.578125 -14.6875 23.25 C-17.56214182 25.6236039 -19.6947061 27.78863015 -21.6875 30.9375 C-24 34 -24 34 -26.5625 34.625 C-29.35539006 33.90887434 -30.92722874 32.99600196 -33 31 C-33 30.34 -33 29.68 -33 29 C-32.27997803 28.76966064 -31.55995605 28.53932129 -30.81811523 28.30200195 C-27.44105633 26.74176154 -25.50488063 24.82950588 -22.91015625 22.16796875 C-22.44314804 21.69434402 -21.97613983 21.2207193 -21.49497986 20.73274231 C-20.01016178 19.22464427 -18.53589644 17.70675153 -17.0625 16.1875 C-15.59102135 14.68070393 -14.11733654 13.17616587 -12.64073181 11.6743927 C-11.29654196 10.30570123 -9.95874801 8.93073693 -8.62133789 7.55541992 C-5.85670638 4.86030974 -2.99459842 2.43401703 0 0 Z " fill="#050B0E" transform="translate(172,54)"/>
<path d="M0 0 C3.83253129 -0.20505665 7.66363766 -0.32820828 11.5 -0.4375 C13.11648437 -0.52547852 13.11648437 -0.52547852 14.765625 -0.61523438 C20.56264595 -0.73895129 24.15564683 -0.51975442 28.62109375 3.390625 C29.76681594 4.57527128 30.8958539 5.7765101 32 7 C33.2684375 8.0828125 33.2684375 8.0828125 34.5625 9.1875 C36 11 36 11 35.75 13.25 C35.5025 13.8275 35.255 14.405 35 15 C34.34 14.67 33.68 14.34 33 14 C33 13.34 33 12.68 33 12 C30.69 11.67 28.38 11.34 26 11 C26 9.35 26 7.7 26 6 C22.46588679 3.87953208 19.05606165 3.46800711 15 3 C15.20625 3.5775 15.4125 4.155 15.625 4.75 C16 7 16 7 14.875 8.875 C14.441875 9.926875 14.441875 9.926875 14 11 C15.28322447 14.23394361 15.28322447 14.23394361 17 17 C11.42390538 14.52173572 7.10075821 10.45225177 3 6 C3 5.34 3 4.68 3 4 C2.01 3.67 1.02 3.34 0 3 C0 2.01 0 1.02 0 0 Z " fill="#708AA0" transform="translate(30,7)"/>
<path d="M0 0 C3 2.5625 3 2.5625 5 6 C5.06521697 9.84780142 4.86990359 11.96280725 2.375 14.9375 C-0.97682053 16.43699866 -3.36980218 16.45377473 -7 16 C-9.4375 14.5 -9.4375 14.5 -11 12 C-11.80414661 7.95439643 -11.63828902 5.02126244 -9.4375 1.5 C-5.97981448 -0.62780647 -3.98743781 -0.69955049 0 0 Z " fill="#7AF7F8" transform="translate(63,90)"/>
<path d="M0 0 C2.562964 2.23225897 2.93752331 3.58051369 3.4375 6.9375 C2.87499856 10.87501007 2.03727005 12.41832046 -1 15 C-3.95424795 15.63008105 -5.90655222 15.39281877 -9 15 C-11.15972435 13.42079381 -11.88861526 12.50401595 -12.46875 9.87890625 C-12.52426701 5.76370783 -12.54853806 3.69813934 -9.9375 0.375 C-6.09003735 -1.42593997 -4.04405144 -1.19823746 0 0 Z " fill="#4FE4EA" transform="translate(135,91)"/>
<path d="M0 0 C1.50240234 0.00870117 1.50240234 0.00870117 3.03515625 0.01757812 C10.43126076 0.14167384 10.43126076 0.14167384 13.875 2.4375 C12.61048068 3.75608428 11.33814525 5.06717631 10.0625 6.375 C9.35480469 7.10589844 8.64710938 7.83679688 7.91796875 8.58984375 C5.875 10.4375 5.875 10.4375 2.875 11.4375 C2.875 10.4475 2.875 9.4575 2.875 8.4375 C3.865 8.4375 4.855 8.4375 5.875 8.4375 C6.205 6.7875 6.535 5.1375 6.875 3.4375 C6.215 3.4375 5.555 3.4375 4.875 3.4375 C4.545 4.4275 4.215 5.4175 3.875 6.4375 C3.38 4.9525 3.38 4.9525 2.875 3.4375 C-5.76764993 3.55005137 -5.76764993 3.55005137 -13.125 7.4375 C-13.125 8.7575 -13.125 10.0775 -13.125 11.4375 C-14.548125 11.7778125 -14.548125 11.7778125 -16 12.125 C-17.03125 12.558125 -18.0625 12.99125 -19.125 13.4375 C-19.62 14.675 -19.62 14.675 -20.125 15.9375 C-20.62 17.175 -20.62 17.175 -21.125 18.4375 C-24.0625 19.625 -24.0625 19.625 -27.125 20.4375 C-28.115 21.0975 -29.105 21.7575 -30.125 22.4375 C-27.21622797 16.1351606 -23.52537778 11.64218695 -18.22265625 7.24609375 C-15.97838431 5.43552611 -15.97838431 5.43552611 -14.06640625 2.75 C-9.61339399 -0.75090738 -5.49543135 -0.18175551 0 0 Z " fill="#5E707D" transform="translate(147.125,6.5625)"/>
<path d="M0 0 C0.99 0 1.98 0 3 0 C3 0.66 3 1.32 3 2 C3.66 2 4.32 2 5 2 C5 2.66 5 3.32 5 4 C6.65 4 8.3 4 10 4 C8.57461795 5.66294572 7.1485723 7.32524157 5.71875 8.984375 C4.60068194 10.29556391 3.49567647 11.61804354 2.40625 12.953125 C1.64828125 13.87351563 1.64828125 13.87351563 0.875 14.8125 C0.41867188 15.37582031 -0.03765625 15.93914062 -0.5078125 16.51953125 C-2.19248354 18.19097189 -3.83893084 19.04931507 -6 20 C-9.0916909 17.47043472 -9.90931332 14.77545388 -11 11 C-8.42215154 8.35247996 -6.08351902 6.05567935 -3 4 C-2.505 3.29875 -2.01 2.5975 -1.5 1.875 C-1.005 1.25625 -0.51 0.6375 0 0 Z " fill="#1F272D" transform="translate(127,149)"/>
<path d="M0 0 C0.66 0.33 1.32 0.66 2 1 C1.51144531 1.39445312 1.02289063 1.78890625 0.51953125 2.1953125 C-1.93005022 5.10458407 -1.34808936 7.89842807 -1.21484375 11.5546875 C-0.9559718 14.50112093 -0.69342872 16.53683096 1 19 C1.94875 19.226875 2.8975 19.45375 3.875 19.6875 C7 21 7 21 8.28125 23.234375 C9.77674624 26.93038713 11 29.98541415 11 34 C7.54087986 33.43463843 6.21959343 32.47354501 4.0625 29.75 C0.65931099 25.68096966 -2.95302152 21.88709497 -6.6875 18.125 C-7.24622803 17.55362305 -7.80495605 16.98224609 -8.38061523 16.39355469 C-11.12529924 13.64106512 -13.42579826 11.62233271 -17 10 C-17.75 7.875 -17.75 7.875 -18 6 C-17.34 6 -16.68 6 -16 6 C-16 6.66 -16 7.32 -16 8 C-15.401875 8.268125 -14.80375 8.53625 -14.1875 8.8125 C-12 10 -12 10 -10.5 11.625 C-8.847706 13.45048309 -8.847706 13.45048309 -5 13 C-4.89042969 12.31292969 -4.78085937 11.62585938 -4.66796875 10.91796875 C-4.43013672 9.56638672 -4.43013672 9.56638672 -4.1875 8.1875 C-3.96126953 6.84751953 -3.96126953 6.84751953 -3.73046875 5.48046875 C-2.94604607 2.81678744 -2.11372201 1.74309678 0 0 Z " fill="#1F4851" transform="translate(50,89)"/>
<path d="M0 0 C3.76154738 1.25384913 5.27191198 3.14200302 8 6 C8.928125 6.928125 9.85625 7.85625 10.8125 8.8125 C11.534375 9.534375 12.25625 10.25625 13 11 C12 13 12 13 10.375 14.25 C8.63401684 16.05057728 8.63401684 16.05057728 9.3125 19.1875 C9.539375 20.115625 9.76625 21.04375 10 22 C1.31782657 17.76479345 1.31782657 17.76479345 -1 14 C-1.30820969 9.22806382 -0.76767112 4.70924301 0 0 Z " fill="#4D5C68" transform="translate(15,37)"/>
<path d="M0 0 C0.33 0 0.66 0 1 0 C2.05353881 10.97018189 2.05353881 10.97018189 -0.171875 15.2578125 C-1.99786606 17.33596423 -3.94380435 19.14836584 -6 21 C-6.94282736 21.95836662 -7.87859952 22.92370648 -8.80859375 23.89453125 C-16.45436316 31.81812105 -16.45436316 31.81812105 -20 33 C-20 32.34 -20 31.68 -20 31 C-20.66 30.67 -21.32 30.34 -22 30 C-17.69230769 24.21538462 -17.69230769 24.21538462 -14.1875 23.125 C-13.465625 23.08375 -12.74375 23.0425 -12 23 C-11.91621094 22.42378906 -11.83242187 21.84757812 -11.74609375 21.25390625 C-10.78225094 18.34219263 -9.28858012 17.02671443 -7.0625 14.9375 C-3.40462195 11.47878046 -0.88148539 8.96176809 -0.375 3.8125 C-0.25125 2.554375 -0.1275 1.29625 0 0 Z " fill="#111618" transform="translate(176,91)"/>
<path d="M0 0 C3.71045247 1.57780923 6.29906384 3.90703248 9.25 6.625 C10.14203125 7.44226563 11.0340625 8.25953125 11.953125 9.1015625 C12.96632812 10.04128906 12.96632812 10.04128906 14 11 C10.5647952 13.29013653 9.014669 13.17842973 5 13 C5 12.34 5 11.68 5 11 C4.34 11 3.68 11 3 11 C2.34 9.68 1.68 8.36 1 7 C-2.7952131 8.49097658 -4.61042731 10.75700849 -7 14 C-7.66 13.34 -8.32 12.68 -9 12 C-9.99 12 -10.98 12 -12 12 C-10.38113585 10.32737283 -8.7547271 8.66204463 -7.125 7 C-6.22007813 6.071875 -5.31515625 5.14375 -4.3828125 4.1875 C-2 2 -2 2 0 2 C0 1.34 0 0.68 0 0 Z M-13 13 C-12.67 13.66 -12.34 14.32 -12 15 C-12.66 14.67 -13.32 14.34 -14 14 C-13.67 13.67 -13.34 13.34 -13 13 Z " fill="#04070A" transform="translate(127,140)"/>
<path d="M0 0 C3.90851199 1.58431453 6.52367356 4.26635095 9.421875 7.2265625 C9.92672424 7.73424164 10.43157349 8.24192078 10.95172119 8.76498413 C12.55592096 10.38033842 14.15300856 12.00252209 15.75 13.625 C16.83938107 14.72441698 17.9292199 15.82338059 19.01953125 16.921875 C21.68501885 19.6093602 24.34415143 22.30299021 27 25 C26.01 25 25.02 25 24 25 C22.32900023 25.31088368 20.66128463 25.64080332 19 26 C19.28101562 25.30648437 19.56203125 24.61296875 19.8515625 23.8984375 C20.32295168 20.73344901 20.32295168 20.73344901 17.6484375 17.8515625 C16.57307096 16.7602646 15.48110823 15.68512682 14.375 14.625 C13.84003906 14.06683594 13.30507813 13.50867187 12.75390625 12.93359375 C10.98290181 11.11665965 10.98290181 11.11665965 8 9 C5.17243501 8.98611326 5.17243501 8.98611326 3 10 C3.33 8.35 3.66 6.7 4 5 C2.68 5.33 1.36 5.66 0 6 C0.33 6.66 0.66 7.32 1 8 C-0.32 8.33 -1.64 8.66 -3 9 C-3.12375 9.515625 -3.2475 10.03125 -3.375 10.5625 C-4.18641628 13.72702351 -5.0945913 16.86124985 -6 20 C-6.33 20 -6.66 20 -7 20 C-7.55131189 13.38425728 -6.75992183 8.55814532 -3 3 C-2.0270602 1.97365301 -1.03347429 0.96536567 0 0 Z " fill="#5F6C76" transform="translate(36,25)"/>
<path d="M0 0 C0.99 0.33 1.98 0.66 3 1 C3.66 0.67 4.32 0.34 5 0 C3.64132099 5.54307696 1.12891027 8.54374886 -2.8125 12.4375 C-3.33392578 12.99115234 -3.85535156 13.54480469 -4.39257812 14.11523438 C-5.95703125 15.68359375 -5.95703125 15.68359375 -9 18 C-11.88671875 17.84765625 -11.88671875 17.84765625 -14 17 C-14.33 15.68 -14.66 14.36 -15 13 C-11.375 10 -11.375 10 -8 10 C-7.773125 9.443125 -7.54625 8.88625 -7.3125 8.3125 C-5.63848923 5.36305245 -3.45043651 3.3247731 -1 1 C-0.67 0.67 -0.34 0.34 0 0 Z " fill="#04080A" transform="translate(113,56)"/>
<path d="M0 0 C0.66 2.31 1.32 4.62 2 7 C-1.63 10.63 -5.26 14.26 -9 18 C-9.99 17.67 -10.98 17.34 -12 17 C-11.67 15.68 -11.34 14.36 -11 13 C-12.32 13.99 -13.64 14.98 -15 16 C-15.66 15.67 -16.32 15.34 -17 15 C-13 11 -9 7 -5 3 C-4.48606689 2.44481689 -3.97213379 1.88963379 -3.44262695 1.31762695 C-2 0 -2 0 0 0 Z " fill="#10171B" transform="translate(151,19)"/>
<path d="M0 0 C2.93230193 1.32120828 4.98664899 2.74638197 7.234375 5.0390625 C8.09482422 5.90917969 8.09482422 5.90917969 8.97265625 6.796875 C9.55917969 7.40015625 10.14570313 8.0034375 10.75 8.625 C11.35199219 9.23601563 11.95398438 9.84703125 12.57421875 10.4765625 C14.05405305 11.97988624 15.52764676 13.48934856 17 15 C16.34 15.66 15.68 16.32 15 17 C15 18.32 15 19.64 15 21 C14.34 21 13.68 21 13 21 C12.79375 20.443125 12.5875 19.88625 12.375 19.3125 C10.48870368 16.14009255 7.84515195 14.32257302 5 12 C2 8.5 2 8.5 2 6 C1.01 5.67 0.02 5.34 -1 5 C-0.67 3.35 -0.34 1.7 0 0 Z " fill="#03070A" transform="translate(17,54)"/>
<path d="M0 0 C2.36067291 1.9695555 4.68573187 3.97616791 7 6 C7.90878906 6.77150391 7.90878906 6.77150391 8.8359375 7.55859375 C10.5 9.0625 10.5 9.0625 13 12 C12.875 14.875 12.875 14.875 12 17 C8.49518322 17 8.07159595 16.50762753 5.5625 14.25 C4.9540625 13.70601562 4.345625 13.16203125 3.71875 12.6015625 C1.76363491 10.77975071 -0.14765418 8.92643965 -2 7 C-1.34 4.69 -0.68 2.38 0 0 Z " fill="#11171B" transform="translate(40,19)"/>
<path d="M0 0 C0.76681614 12.59282511 0.76681614 12.59282511 -1.11328125 16.04296875 C-2.5 17.375 -2.5 17.375 -5 19 C-5.66 18.67 -6.32 18.34 -7 18 C-6.34 17.34 -5.68 16.68 -5 16 C-5.66 15.01 -6.32 14.02 -7 13 C-7 11.68 -7 10.36 -7 9 C-7.99 9 -8.98 9 -10 9 C-8.91720359 5.75161077 -8.10963155 4.95717417 -5.5625 2.8125 C-4.94503906 2.28269531 -4.32757813 1.75289062 -3.69140625 1.20703125 C-2 0 -2 0 0 0 Z " fill="#566676" transform="translate(176,37)"/>
<path d="M0 0 C4.21297326 0 5.73657121 0.75947806 8.875 3.625 C11.84935226 8.34897124 11.40949872 11.59419502 10.5 16.9375 C10.335 17.618125 10.17 18.29875 10 19 C7.20251159 19.93249614 5.45679119 20.13476152 2.5625 20.125 C1.41974609 20.12886719 1.41974609 20.12886719 0.25390625 20.1328125 C-1.95315859 20.00276015 -3.87969276 19.60856199 -6 19 C-6.33 17.68 -6.66 16.36 -7 15 C-5.515 15.99 -5.515 15.99 -4 17 C-1.27991595 17.47162748 1.27692969 17.45384505 4 17 C6.6923481 14.81246717 6.93936827 13.41576045 7.4375 10 C7.22899984 6.93603757 7.22899984 6.93603757 5.3125 4.6875 C2.80401508 2.85698398 1.05917167 2.33990796 -2 2 C-1.34 1.34 -0.68 0.68 0 0 Z " fill="#0E7685" transform="translate(130,88)"/>
<path d="M0 0 C0.33 0.99 0.66 1.98 1 3 C1.66 3.33 2.32 3.66 3 4 C3.33 3.34 3.66 2.68 4 2 C4.99 2.33 5.98 2.66 7 3 C7 4.32 7 5.64 7 7 C8.32 7 9.64 7 11 7 C10.375 8.9375 10.375 8.9375 9 11 C4.41632334 12.45844257 1.39230803 11.77783897 -3 10 C-3 6.85786017 -2.66719444 4.06909445 -2 1 C-1.34 0.67 -0.68 0.34 0 0 Z " fill="#12181E" transform="translate(92,66)"/>
<path d="M0 0 C1.5625 1.0625 1.5625 1.0625 3 3 C2.93404021 6.69374831 2.78744042 9.06112873 0.375 11.9375 C-2.97682053 13.43699866 -5.36980218 13.45377473 -9 13 C-11.4375 11.5 -11.4375 11.5 -13 9 C-13.32111824 6.24154167 -13.18630402 3.79456032 -13 1 C-11 3 -11 3 -9.625 5.5625 C-8.23788599 8.09907829 -8.23788599 8.09907829 -6 8.9375 C-3.67685348 9.20376008 -3.67685348 9.20376008 -1 7 C-0.83329727 3.95826106 -0.83329727 3.95826106 -1 1 C-0.67 0.67 -0.34 0.34 0 0 Z " fill="#5BEDF4" transform="translate(65,93)"/>
<path d="M0 0 C0.99 0.66 1.98 1.32 3 2 C3.3125 5 3.3125 5 3 8 C1 10 1 10 -1.9375 10.375 C-5 10 -5 10 -6.9375 8.3125 C-8.27524691 5.4009332 -8.05066859 3.99036444 -7 1 C-4.47454232 -0.26272884 -2.80127043 -0.20497101 0 0 Z " fill="#7CFAFB" transform="translate(132,92)"/>
<path d="M0 0 C1.07636719 0.00322266 2.15273437 0.00644531 3.26171875 0.00976562 C4.38964844 0.01814453 5.51757812 0.02652344 6.6796875 0.03515625 C7.81535156 0.03966797 8.95101562 0.04417969 10.12109375 0.04882812 C12.93234388 0.0606401 15.7434898 0.07711118 18.5546875 0.09765625 C17.6190638 1.22768302 16.67787125 2.35310042 15.734375 3.4765625 C15.21085449 4.10377197 14.68733398 4.73098145 14.14794922 5.37719727 C12.19697531 7.48392621 10.114504 8.817748 7.5546875 10.09765625 C7.5546875 9.10765625 7.5546875 8.11765625 7.5546875 7.09765625 C8.5446875 7.09765625 9.5346875 7.09765625 10.5546875 7.09765625 C10.8846875 5.44765625 11.2146875 3.79765625 11.5546875 2.09765625 C10.8946875 2.09765625 10.2346875 2.09765625 9.5546875 2.09765625 C9.2246875 3.08765625 8.8946875 4.07765625 8.5546875 5.09765625 C8.2246875 4.10765625 7.8946875 3.11765625 7.5546875 2.09765625 C-1.12568204 2.67067904 -1.12568204 2.67067904 -9.4453125 5.09765625 C-7.17096012 0.06159028 -5.37351838 -0.02828168 0 0 Z " fill="#7B8D9C" transform="translate(142.4453125,7.90234375)"/>
<path d="M0 0 C2.88437779 1.29299694 4.87219421 2.65941363 7 5 C6.33333333 7 5.66666667 9 5 11 C5 10.34 5 9.68 5 9 C3.05000871 9.19471111 3.05000871 9.19471111 1 10 C-0.28436734 11.9837767 -0.28436734 11.9837767 -1 14 C-3.31 13.67 -5.62 13.34 -8 13 C-7.0919838 11.86800647 -6.17316174 10.74467637 -5.25 9.625 C-4.48429687 8.68527344 -4.48429687 8.68527344 -3.703125 7.7265625 C-1.91800519 5.91687682 -0.32050356 4.99882545 2 4 C1.34 2.68 0.68 1.36 0 0 Z " fill="#020508" transform="translate(59,138)"/>
<path d="M0 0 C0 3 0 3 -1.2421875 4.60546875 C-1.78101563 5.12753906 -2.31984375 5.64960937 -2.875 6.1875 C-3.40867188 6.71730469 -3.94234375 7.24710937 -4.4921875 7.79296875 C-6 9 -6 9 -8 9 C-8.268125 9.598125 -8.53625 10.19625 -8.8125 10.8125 C-9.99917406 12.99847854 -11.09599113 14.41332594 -13 16 C-13.66 16 -14.32 16 -15 16 C-15 16.66 -15 17.32 -15 18 C-15.66 18 -16.32 18 -17 18 C-17 18.66 -17 19.32 -17 20 C-18.96147874 21.38938077 -20.96166576 22.7260411 -23 24 C-22.67 22.35 -22.34 20.7 -22 19 C-21.01 18.67 -20.02 18.34 -19 18 C-18.525625 17.05125 -18.05125 16.1025 -17.5625 15.125 C-15.99737916 11.99475831 -14.97837631 10.72937979 -12 9 C-11.34 9 -10.68 9 -10 9 C-10 7.68 -10 6.36 -10 5 C-9.34 5 -8.68 5 -8 5 C-8 5.66 -8 6.32 -8 7 C-4.04 3.535 -4.04 3.535 0 0 Z " fill="#30545C" transform="translate(152,100)"/>
<path d="M0 0 C0 0.66 0 1.32 0 2 C-0.94875 2.28875 -1.8975 2.5775 -2.875 2.875 C-6.05211578 3.76825109 -6.05211578 3.76825109 -8 6 C-8.64626427 11.17444464 -8.64626427 11.17444464 -6.7734375 15.7421875 C-4.4765112 17.37128501 -3.09924705 17.30866292 -0.3125 17.1875 C0.49574219 17.16042969 1.30398437 17.13335937 2.13671875 17.10546875 C3.05904297 17.05326172 3.05904297 17.05326172 4 17 C4 17.66 4 18.32 4 19 C2.39592672 19.02708567 0.7917215 19.04643483 -0.8125 19.0625 C-2.15248047 19.07990234 -2.15248047 19.07990234 -3.51953125 19.09765625 C-6 19 -6 19 -9 18 C-9 17.34 -9 16.68 -9 16 C-9.66 16 -10.32 16 -11 16 C-12.60725635 12.78548731 -12.05748185 9.56387464 -12 6 C-11.34 6 -10.68 6 -10 6 C-9.731875 5.030625 -9.46375 4.06125 -9.1875 3.0625 C-8.5996875 1.5465625 -8.5996875 1.5465625 -8 0 C-4.71023192 -1.09658936 -3.28696233 -0.79953138 0 0 Z " fill="#1F7783" transform="translate(61,88)"/>
<path d="M0 0 C0.33 0.66 0.66 1.32 1 2 C5.8617031 2.93306191 10.74758172 3.23780613 15.68359375 3.53515625 C16.38396255 3.57813339 17.08433136 3.62111053 17.80592346 3.66539001 C20.01629711 3.80042028 22.2268826 3.93152725 24.4375 4.0625 C25.94728145 4.15403627 27.45704727 4.24583073 28.96679688 4.33789062 C32.64435544 4.56157662 36.3221145 4.78174766 40 5 C40 5.33 40 5.66 40 6 C26.8 6 13.6 6 0 6 C0 4.02 0 2.04 0 0 Z " fill="#36424D" transform="translate(75,32)"/>
<path d="M0 0 C0.93423645 3.01031744 1.04449911 3.86650268 0 7 C-7.44662814 7.13621881 -14.87356722 6.94691633 -22.3125 6.625 C-23.15973633 6.59414307 -24.00697266 6.56328613 -24.87988281 6.53149414 C-29.89663247 6.29426876 -34.22994413 5.5835813 -39 4 C-39 3.34 -39 2.68 -39 2 C-38.37657715 2.06058594 -37.7531543 2.12117188 -37.11083984 2.18359375 C-25.38305331 3.30731754 -13.79293934 4.36789066 -2 4 C-1.34 2.68 -0.68 1.36 0 0 Z " fill="#43505D" transform="translate(115,30)"/>
<path d="M0 0 C13.2 0 26.4 0 40 0 C39.34 1.32 38.68 2.64 38 4 C35.36 4 32.72 4 30 4 C30 3.34 30 2.68 30 2 C29.00742188 2.01160156 28.01484375 2.02320313 26.9921875 2.03515625 C17.93653006 2.10688423 9.02781493 1.78993381 0 1 C0 0.67 0 0.34 0 0 Z " fill="#718492" transform="translate(76,27)"/>
<path d="M0 0 C0.33 0.66 0.66 1.32 1 2 C0.67 2.66 0.34 3.32 0 4 C-0.66 4 -1.32 4 -2 4 C-1.67 7.3 -1.34 10.6 -1 14 C-0.34 14 0.32 14 1 14 C1 14.66 1 15.32 1 16 C5.29 16.33 9.58 16.66 14 17 C13.67 17.99 13.34 18.98 13 20 C2.90726598 20.62644556 2.90726598 20.62644556 -0.625 18.1875 C-2.7709252 14.77352809 -3.17940425 11.95336187 -3.25 8 C-3.27578125 7.13375 -3.3015625 6.2675 -3.328125 5.375 C-2.94072585 2.57096806 -2.17141522 1.73713218 0 0 Z M16 11 C16.33 12.32 16.66 13.64 17 15 C16.01 15.66 15.02 16.32 14 17 C14.50603992 14.83125748 14.99983813 13.00032373 16 11 Z " fill="#185465" transform="translate(51,90)"/>
<path d="M0 0 C0.66 0 1.32 0 2 0 C-0.35438645 5.77894856 -4.79243534 8.92887213 -10 12 C-10.721875 12.721875 -11.44375 13.44375 -12.1875 14.1875 C-12.785625 14.785625 -13.38375 15.38375 -14 16 C-14.66 16 -15.32 16 -16 16 C-17.23076923 9.6 -17.23076923 9.6 -16.0625 6.5625 C-15.711875 6.046875 -15.36125 5.53125 -15 5 C-14.01 6.485 -14.01 6.485 -13 8 C-10.03824877 7.38722388 -8.61941217 6.74627478 -6 5 C-5.01 4.67 -4.02 4.34 -3 4 C-1.99357052 2.67151309 -0.99307821 1.33849671 0 0 Z " fill="#182F37" transform="translate(160,91)"/>
<path d="M0 0 C10.56 0.66 21.12 1.32 32 2 C32 2.66 32 3.32 32 4 C22.43 4 12.86 4 3 4 C3 3.34 3 2.68 3 2 C2.01 1.67 1.02 1.34 0 1 C0 0.67 0 0.34 0 0 Z " fill="#5C7081" transform="translate(74,27)"/>
<path d="M0 0 C3.95827235 -0.05785647 7.9164367 -0.09354717 11.875 -0.125 C13.00292969 -0.14175781 14.13085938 -0.15851562 15.29296875 -0.17578125 C16.36933594 -0.18222656 17.44570313 -0.18867187 18.5546875 -0.1953125 C19.54968262 -0.20578613 20.54467773 -0.21625977 21.56982422 -0.22705078 C24 0 24 0 26 2 C19.4 2.33 12.8 2.66 6 3 C5.77011494 5.36278736 5.77011494 5.36278736 8.5 7.625 C9.7375 8.800625 9.7375 8.800625 11 10 C10.01 10.33 9.02 10.66 8 11 C6.29115995 9.37660195 4.62553283 7.70680947 3 6 C3 5.34 3 4.68 3 4 C2.01 3.67 1.02 3.34 0 3 C0 2.01 0 1.02 0 0 Z " fill="#687B85" transform="translate(30,7)"/>
<path d="M0 0 C0.33 0.66 0.66 1.32 1 2 C1.99 2.33 2.98 2.66 4 3 C3.67 3.99 3.34 4.98 3 6 C1.14453125 6.58984375 1.14453125 6.58984375 -1.1875 6.9375 C-7.53365402 8.1563645 -11.64120178 11.30590961 -16 16 C-16.66 15.67 -17.32 15.34 -18 15 C-16.29099433 13.29099433 -14.5813512 11.58274367 -12.8671875 9.87890625 C-11.36178826 8.3640589 -9.89342543 6.81245656 -8.4375 5.25 C-5.80542211 2.82038964 -3.26305932 1.44181691 0 0 Z " fill="#485159" transform="translate(130,50)"/>
<path d="M0 0 C3.63286955 1.21095652 4.43006752 2.79359383 6.21484375 6.078125 C7.31643358 8.77455384 7.27986167 11.13141789 7 14 C6.38125 13.34 5.7625 12.68 5.125 12 C3.24362573 9.7715451 3.24362573 9.7715451 1 10 C1 8.68 1 7.36 1 6 C0.236875 6.165 -0.52625 6.33 -1.3125 6.5 C-4 7 -4 7 -7 7 C-4.69 4.69 -2.38 2.38 0 0 Z " fill="#5B6975" transform="translate(153,25)"/>
<path d="M0 0 C0.66 0.33 1.32 0.66 2 1 C1.34 1.66 0.68 2.32 0 3 C1.32 3.33 2.64 3.66 4 4 C2.02 4.99 2.02 4.99 0 6 C0.33 6.66 0.66 7.32 1 8 C-0.32 8.33 -1.64 8.66 -3 9 C-3.12375 9.515625 -3.2475 10.03125 -3.375 10.5625 C-4.18641628 13.72702351 -5.0945913 16.86124985 -6 20 C-6.33 20 -6.66 20 -7 20 C-7.55131189 13.38425728 -6.75992183 8.55814532 -3 3 C-2.0270602 1.97365301 -1.03347429 0.96536567 0 0 Z " fill="#515E68" transform="translate(36,25)"/>
<path d="M0 0 C0.66 0.99 1.32 1.98 2 3 C4.43750025 5.68767578 4.43750025 5.68767578 7 8 C9.0745356 8.1490712 9.0745356 8.1490712 11 7 C11.33 7.66 11.66 8.32 12 9 C13.32 8.67 14.64 8.34 16 8 C15.3125 9.875 15.3125 9.875 14 12 C12.35 12.66 10.7 13.32 9 14 C5.37 10.37 1.74 6.74 -2 3 C-1 1 -1 1 0 0 Z " fill="#333A41" transform="translate(85,181)"/>
<path d="M0 0 C2.0625 0.6875 2.0625 0.6875 4 2 C4.75 4.125 4.75 4.125 5 6 C2.525 7.485 2.525 7.485 0 9 C-1.65 8.01 -3.3 7.02 -5 6 C-2.25 1.125 -2.25 1.125 0 0 Z " fill="#88F7FB" transform="translate(60,94)"/>
<path d="M0 0 C2.91517292 1.07401108 4.77810176 1.77810176 7 4 C6.01 4 5.02 4 4 4 C3.95875 4.61875 3.9175 5.2375 3.875 5.875 C3.58625 6.57625 3.2975 7.2775 3 8 C-0.0625 9.25 -0.0625 9.25 -3 10 C-3.33 8.02 -3.66 6.04 -4 4 C-2.68 3.34 -1.36 2.68 0 2 C0 1.34 0 0.68 0 0 Z " fill="#153844" transform="translate(130,111)"/>
<path d="M0 0 C8.30721003 7.05329154 8.30721003 7.05329154 10 9 C9.6875 11.1875 9.6875 11.1875 9 13 C8.34 12.67 7.68 12.34 7 12 C7 11.34 7 10.68 7 10 C4.69 9.67 2.38 9.34 0 9 C0 6.03 0 3.06 0 0 Z " fill="#697C8B" transform="translate(56,9)"/>
<path d="M0 0 C1.65 0 3.3 0 5 0 C4.67 1.65 4.34 3.3 4 5 C3.01 4.67 2.02 4.34 1 4 C-2.07270141 4.64763188 -2.07270141 4.64763188 -3 6.8125 C-3.33 7.534375 -3.66 8.25625 -4 9 C-6.17986832 12.52931061 -8.06292575 13.72311105 -12 15 C-11.1875 13.0625 -11.1875 13.0625 -10 11 C-9.01 10.67 -8.02 10.34 -7 10 C-6.690625 9.38125 -6.38125 8.7625 -6.0625 8.125 C-4.79200535 5.5840107 -3.25277761 4.67141565 -1 3 C-0.67 2.01 -0.34 1.02 0 0 Z " fill="#181C22" transform="translate(112,53)"/>
<path d="M0 0 C3.43595166 1.52708963 6.11912454 3.59927045 9 6 C9 5.34 9 4.68 9 4 C9.99 3.67 10.98 3.34 12 3 C12.33 5.31 12.66 7.62 13 10 C13.99 10.33 14.98 10.66 16 11 C15.01 11.66 14.02 12.32 13 13 C12.34 12.67 11.68 12.34 11 12 C11 11.34 11 10.68 11 10 C10.41734375 9.74347656 9.8346875 9.48695313 9.234375 9.22265625 C6.80289161 7.89214174 5.18264447 6.41556987 3.25 4.4375 C2.63640625 3.81746094 2.0228125 3.19742188 1.390625 2.55859375 C0 1 0 1 0 0 Z " fill="#2E373E" transform="translate(74,150)"/>
<path d="M0 0 C0 4.62 0 9.24 0 14 C-0.66 14 -1.32 14 -2 14 C-2 10.7 -2 7.4 -2 4 C-2.94875 4.825 -3.8975 5.65 -4.875 6.5 C-7.75 9 -7.75 9 -10 9 C-8.91720359 5.75161077 -8.10963155 4.95717417 -5.5625 2.8125 C-4.94503906 2.28269531 -4.32757813 1.75289062 -3.69140625 1.20703125 C-2 0 -2 0 0 0 Z " fill="#67747E" transform="translate(176,37)"/>
<path d="M0 0 C1.65 3.63 3.3 7.26 5 11 C4.01 11.33 3.02 11.66 2 12 C1.4121875 10.948125 1.4121875 10.948125 0.8125 9.875 C-1.22742577 6.63925568 -3.50686929 3.89742218 -6 1 C-4 0 -4 0 0 0 Z " fill="#103A44" transform="translate(57,111)"/>
<path d="M0 0 C0.66 0.33 1.32 0.66 2 1 C1.690625 1.53625 1.38125 2.0725 1.0625 2.625 C-0.17827439 5.3984957 -0.5909675 8.00042837 -1 11 C-3.97 10.505 -3.97 10.505 -7 10 C-7 7 -7 7 -5.46875 5.17578125 C-4.8190625 4.56089844 -4.169375 3.94601563 -3.5 3.3125 C-2.8503125 2.68988281 -2.200625 2.06726563 -1.53125 1.42578125 C-0.77328125 0.72001953 -0.77328125 0.72001953 0 0 Z " fill="#030B0E" transform="translate(116,102)"/>
<path d="M0 0 C0.66 0.33 1.32 0.66 2 1 C2.08159574 5.16138263 1.98248524 8.9472484 1 13 C-1.79748841 13.93249614 -3.54320881 14.13476152 -6.4375 14.125 C-7.58025391 14.12886719 -7.58025391 14.12886719 -8.74609375 14.1328125 C-10.95315859 14.00276015 -12.87969276 13.60856199 -15 13 C-15.33 11.68 -15.66 10.36 -16 9 C-15.154375 9.474375 -14.30875 9.94875 -13.4375 10.4375 C-9.87412671 12.05721513 -6.87438575 12.61256143 -3 13 C-1.13003661 8.63675209 0 4.76414632 0 0 Z " fill="#116174" transform="translate(139,94)"/>
<path d="M0 0 C1.5625 1.0625 1.5625 1.0625 3 3 C2.93164714 6.82776042 2.80040781 9.11679138 0.1875 12 C-2 13 -2 13 -4.25 12.6875 C-4.8275 12.460625 -5.405 12.23375 -6 12 C-4.7625 10.948125 -4.7625 10.948125 -3.5 9.875 C-0.69222133 7.22316706 -0.69222133 7.22316706 -0.75 3.75 C-0.8325 2.8425 -0.915 1.935 -1 1 C-0.67 0.67 -0.34 0.34 0 0 Z " fill="#60E3E7" transform="translate(65,93)"/>
<path d="M0 0 C0.33 0.66 0.66 1.32 1 2 C1.99 2.33 2.98 2.66 4 3 C3.67 4.32 3.34 5.64 3 7 C5.31 8.98 7.62 10.96 10 13 C9.67 13.66 9.34 14.32 9 15 C7.72486237 13.92173635 6.45507431 12.83714481 5.1875 11.75 C4.47980469 11.14671875 3.77210937 10.5434375 3.04296875 9.921875 C1.0542608 8.05104458 -0.53845736 6.30527231 -2 4 C-2 3.01 -2 2.02 -2 1 C-1.34 0.67 -0.68 0.34 0 0 Z " fill="#414B53" transform="translate(26,55)"/>
<path d="M0 0 C4.38100054 1.46033351 7.04399551 4.31561114 9.3125 8.3125 C9.6528125 9.1478125 9.6528125 9.1478125 10 10 C9.05125 9.360625 8.1025 8.72125 7.125 8.0625 C4.24712173 6.07379437 4.24712173 6.07379437 2 5 C1.67 7.97 1.34 10.94 1 14 C0.34 14 -0.32 14 -1 14 C-0.67 9.38 -0.34 4.76 0 0 Z " fill="#73818A" transform="translate(15,37)"/>
<path d="M0 0 C0.33 1.98 0.66 3.96 1 6 C0.67 5.34 0.34 4.68 0 4 C-0.99 4 -1.98 4 -3 4 C-3.33 4.66 -3.66 5.32 -4 6 C-5.66215268 7.33895632 -7.32963607 8.67130142 -9 10 C-9.86625 10.9075 -10.7325 11.815 -11.625 12.75 C-14 15 -14 15 -17 15 C-13 11 -9 7 -5 3 C-4.48606689 2.44481689 -3.97213379 1.88963379 -3.44262695 1.31762695 C-2 0 -2 0 0 0 Z " fill="#172129" transform="translate(151,19)"/>
<path d="M0 0 C0.66 0.33 1.32 0.66 2 1 C1.34 1.66 0.68 2.32 0 3 C0.33 3.66 0.66 4.32 1 5 C0.9375 7 0.9375 7 0 9 C-2.875 10.125 -2.875 10.125 -6 11 C-6.99 11.66 -7.98 12.32 -9 13 C-6.76869284 8.16550114 -3.9810131 3.58291179 0 0 Z " fill="#687885" transform="translate(126,16)"/>
<path d="M0 0 C-0.75 2.4375 -0.75 2.4375 -2 5 C-4.125 5.8125 -4.125 5.8125 -6 6 C-6.33 7.32 -6.66 8.64 -7 10 C-8.65 10.33 -10.3 10.66 -12 11 C-10.55922954 7.63820226 -8.75249979 5.40843732 -6 3 C-5.34 3 -4.68 3 -4 3 C-4 2.34 -4 1.68 -4 1 C-2 0 -2 0 0 0 Z " fill="#030C0E" transform="translate(109,160)"/>
<path d="M0 0 C0 1.98 0 3.96 0 6 C-2.375 6.125 -2.375 6.125 -5 6 C-5.66 5.34 -6.32 4.68 -7 4 C-7 2.68 -7 1.36 -7 0 C-3.86650268 -1.04449911 -3.01031744 -0.93423645 0 0 Z " fill="#95F8F8" transform="translate(133,95)"/>
<path d="M0 0 C1.32 0.33 2.64 0.66 4 1 C4 1.66 4 2.32 4 3 C5.32 3.66 6.64 4.32 8 5 C8 7.64 8 10.28 8 13 C7.34 13 6.68 13 6 13 C5.67 11.02 5.34 9.04 5 7 C3.68 6.67 2.36 6.34 1 6 C0.67 4.02 0.34 2.04 0 0 Z " fill="#060E11" transform="translate(86,164)"/>
<path d="M0 0 C0.33 0.66 0.66 1.32 1 2 C6.74664442 3.16475612 12.59138091 3.30575899 18.4375 3.5625 C19.35982422 3.60568359 20.28214844 3.64886719 21.23242188 3.69335938 C23.48816163 3.79854931 25.74399499 3.90069107 28 4 C28 4.33 28 4.66 28 5 C23.85418113 5.02886751 19.70838784 5.04675327 15.5625 5.0625 C13.78649414 5.07506836 13.78649414 5.07506836 11.97460938 5.08789062 C10.84990234 5.09111328 9.72519531 5.09433594 8.56640625 5.09765625 C7.00321655 5.10551147 7.00321655 5.10551147 5.40844727 5.11352539 C3 5 3 5 2 4 C1.34 4.66 0.68 5.32 0 6 C0 4.02 0 2.04 0 0 Z " fill="#3D4953" transform="translate(75,32)"/>
<path d="M0 0 C0 0.66 0 1.32 0 2 C0.66 2.33 1.32 2.66 2 3 C0.68 4.32 -0.64 5.64 -2 7 C-3.98 6.34 -5.96 5.68 -8 5 C-3.375 0 -3.375 0 0 0 Z " fill="#161C22" transform="translate(151,23)"/>
<path d="M0 0 C6.6 0 13.2 0 20 0 C19.67 0.66 19.34 1.32 19 2 C18.34 1.67 17.68 1.34 17 1 C16.67 1.99 16.34 2.98 16 4 C15.67 3.01 15.34 2.02 15 1 C6.31963046 1.57302279 6.31963046 1.57302279 -2 4 C-1.34 2.68 -0.68 1.36 0 0 Z " fill="#859EB0" transform="translate(135,9)"/>
<path d="M0 0 C-1.375 1.5 -1.375 1.5 -3 3 C-3.66 3 -4.32 3 -5 3 C-5 3.66 -5 4.32 -5 5 C-9.38461538 8 -9.38461538 8 -12 8 C-10.55536047 4.62917442 -8.75336875 2.41962708 -6 0 C-3 -1 -3 -1 0 0 Z " fill="#0D2932" transform="translate(57,84)"/>
<path d="M0 0 C0.66 0.33 1.32 0.66 2 1 C1.16147588 5.36032543 0.51576155 7.53008392 -2.8125 10.5625 C-6 12 -6 12 -8.875 11.25 C-9.57625 10.8375 -10.2775 10.425 -11 10 C-11 9.67 -11 9.34 -11 9 C-9.741875 8.814375 -8.48375 8.62875 -7.1875 8.4375 C-4.58129396 7.8147782 -3.36939111 7.52099789 -1.80078125 5.30859375 C-0.87461627 3.16740924 -0.87461627 3.16740924 0 0 Z " fill="#184755" transform="translate(142,101)"/>
<path d="M0 0 C0.33 0.66 0.66 1.32 1 2 C0.67 2.66 0.34 3.32 0 4 C-0.66 4 -1.32 4 -2 4 C-1.67 7.3 -1.34 10.6 -1 14 C-0.34 14 0.32 14 1 14 C1 15.32 1 16.64 1 18 C2.32 18.66 3.64 19.32 5 20 C2.6875 19.875 2.6875 19.875 0 19 C-3.23850514 14.64476895 -3.35026437 10.4963155 -3.3984375 5.26953125 C-2.92600255 2.57850475 -2.08718537 1.69514791 0 0 Z " fill="#144F5E" transform="translate(51,90)"/>
<path d="M0 0 C1.65 1.65 3.3 3.3 5 5 C4.34 6.32 3.68 7.64 3 9 C1.0625 8.6875 1.0625 8.6875 -1 8 C-2.2077558 4.37673261 -1.54311128 3.35853631 0 0 Z " fill="#1B2127" transform="translate(40,19)"/>
<path d="M0 0 C4.30667505 2.58400503 6.54068019 4.66691272 9 9 C9.99 9.33 10.98 9.66 12 10 C12 10.66 12 11.32 12 12 C8.20405883 11.43573848 6.41289367 9.81748138 3.75 7.125 C3.04359375 6.42632812 2.3371875 5.72765625 1.609375 5.0078125 C0 3 0 3 0 0 Z " fill="#171D20" transform="translate(19,108)"/>
<path d="M0 0 C0 3 0 3 -1.13671875 4.5 C-8.890625 12 -8.890625 12 -13 12 C-12.67 11.01 -12.34 10.02 -12 9 C-11.34 9 -10.68 9 -10 9 C-10 7.68 -10 6.36 -10 5 C-9.34 5 -8.68 5 -8 5 C-8 5.66 -8 6.32 -8 7 C-4.04 3.535 -4.04 3.535 0 0 Z " fill="#2A4E55" transform="translate(152,100)"/>
<path d="M0 0 C2.25 -0.25 2.25 -0.25 5 0 C6.37310707 1.29233607 7.71034824 2.62437146 9 4 C9.99 4 10.98 4 12 4 C11.67 4.99 11.34 5.98 11 7 C8.9375 7.6875 8.9375 7.6875 7 8 C6.6596875 7.071875 6.6596875 7.071875 6.3125 6.125 C4.62070165 3.38589791 3.00755839 2.94975528 0 2 C0 1.34 0 0.68 0 0 Z " fill="#08242A" transform="translate(134,83)"/>
<path d="M0 0 C1.98 1.65 3.96 3.3 6 5 C5.01 5.33 4.02 5.66 3 6 C2.34 5.67 1.68 5.34 1 5 C1.14168137 6.43791516 1.28851043 7.8753237 1.4375 9.3125 C1.51871094 10.11300781 1.59992187 10.91351563 1.68359375 11.73828125 C1.95265693 14.16087179 1.95265693 14.16087179 3 17 C2.01 16.67 1.02 16.34 0 16 C-0.19389096 13.5211787 -0.38040123 11.04219069 -0.5625 8.5625 C-0.61857422 7.85544922 -0.67464844 7.14839844 -0.73242188 6.41992188 C-0.86190993 4.61572163 -0.93521608 2.80768048 -1 1 C-0.67 0.67 -0.34 0.34 0 0 Z " fill="#2E3439" transform="translate(37,124)"/>
<path d="M0 0 C0.66 0 1.32 0 2 0 C1.68232368 5.40049736 -1.19996327 7.52337065 -5 11 C-5.99 10.67 -6.98 10.34 -8 10 C-7.236875 9.278125 -6.47375 8.55625 -5.6875 7.8125 C-2.955914 5.16073022 -2.955914 5.16073022 -1.3125 2.1875 C-0.879375 1.465625 -0.44625 0.74375 0 0 Z " fill="#191C1F" transform="translate(175,101)"/>
<path d="M0 0 C0.33 0.66 0.66 1.32 1 2 C2.485 2.4640625 2.485 2.4640625 4 2.9375 C4.99 3.288125 5.98 3.63875 7 4 C7.33 4.99 7.66 5.98 8 7 C9.49985609 8.66710346 9.49985609 8.66710346 11 10 C10.67 10.99 10.34 11.98 10 13 C10 12.34 10 11.68 10 11 C9.34 11 8.68 11 8 11 C5.375 8.625 5.375 8.625 3 6 C3 5.34 3 4.68 3 4 C1.68 3.34 0.36 2.68 -1 2 C-0.67 1.34 -0.34 0.68 0 0 Z " fill="#0F3642" transform="translate(133,83)"/>
<path d="M0 0 C0 1.65 0 3.3 0 5 C-3.5657989 6.96733733 -5.93941676 7 -10 7 C-9.06894211 6.01470572 -8.12987519 5.03697556 -7.1875 4.0625 C-6.66542969 3.51722656 -6.14335937 2.97195312 -5.60546875 2.41015625 C-3.89963026 0.91184069 -2.379718 0 0 0 Z " fill="#515C64" transform="translate(138,43)"/>
<path d="M0 0 C0.66 0.33 1.32 0.66 2 1 C1.979375 2.11375 1.95875 3.2275 1.9375 4.375 C1.73619282 7.83215921 1.73619282 7.83215921 3 10 C1.125 9.6875 1.125 9.6875 -1 9 C-3 6 -3 6 -2.75 3.9375 C-2 2 -2 2 0 0 Z " fill="#272C31" transform="translate(60,151)"/>
<path d="M0 0 C0.99 0.33 1.98 0.66 3 1 C2.45015228 4.87511727 0.72444669 6.59576506 -2.0625 9.25 C-2.79597656 9.95640625 -3.52945313 10.6628125 -4.28515625 11.390625 C-4.85105469 11.92171875 -5.41695312 12.4528125 -6 13 C-6.99 12.67 -7.98 12.34 -9 12 C-8.2575 11.46375 -7.515 10.9275 -6.75 10.375 C-3.80304895 7.82990591 -1.96513326 5.3480048 0 2 C0 1.34 0 0.68 0 0 Z " fill="#101619" transform="translate(141,130)"/>
<path d="M0 0 C0.66 0.33 1.32 0.66 2 1 C2.99 0.67 3.98 0.34 5 0 C6.4606285 2.64738916 7 3.89448334 7 7 C7.33 7.66 7.66 8.32 8 9 C3.7257442 7.4169423 1.73468206 4.49431596 -1 1 C-0.67 0.67 -0.34 0.34 0 0 Z " fill="#5A6874" transform="translate(47,23)"/>
<path d="M0 0 C2 2 2 2 2 6 C3.32 6.33 4.64 6.66 6 7 C4.71034824 8.37562854 3.37310707 9.70766393 2 11 C1.34 11 0.68 11 0 11 C-1.28571429 3.57142857 -1.28571429 3.57142857 0 0 Z " fill="#133942" transform="translate(144,96)"/>
<path d="M0 0 C0.33 0 0.66 0 1 0 C1.28875 1.11375 1.5775 2.2275 1.875 3.375 C2.69241329 7.00291092 2.69241329 7.00291092 5 9 C7.21072977 9.24253813 7.21072977 9.24253813 9.625 9.125 C10.44226562 9.10695313 11.25953125 9.08890625 12.1015625 9.0703125 C12.72804688 9.04710938 13.35453125 9.02390625 14 9 C14 9.66 14 10.32 14 11 C12.39592672 11.02708567 10.7917215 11.04643483 9.1875 11.0625 C7.84751953 11.07990234 7.84751953 11.07990234 6.48046875 11.09765625 C4 11 4 11 1 10 C-0.60725635 6.78548731 -0.05748185 3.56387464 0 0 Z " fill="#177F8E" transform="translate(51,96)"/>
<path d="M0 0 C1.12894876 0.93274109 2.25300876 1.87140122 3.375 2.8125 C4.00148438 3.33457031 4.62796875 3.85664062 5.2734375 4.39453125 C7 6 7 6 9 9 C5.41087588 9 4.89142971 8.33563446 2.3125 6 C1.68988281 5.443125 1.06726562 4.88625 0.42578125 4.3125 C-0.04472656 3.879375 -0.51523437 3.44625 -1 3 C-0.67 2.01 -0.34 1.02 0 0 Z " fill="#15282E" transform="translate(38,102)"/>
<path d="M0 0 C0 3 0 3 -2 6 C-5.12449581 6.49334144 -6.58182014 6.24864748 -9.3125 4.625 C-9.869375 4.08875 -10.42625 3.5525 -11 3 C-11 2.34 -11 1.68 -11 1 C-10.01 1 -9.02 1 -8 1 C-8 1.66 -8 2.32 -8 3 C-4.28263359 3.34900558 -4.28263359 3.34900558 -1.1875 1.5 C-0.795625 1.005 -0.40375 0.51 0 0 Z " fill="#081519" transform="translate(150,82)"/>
<path d="M0 0 C0.598125 0.185625 1.19625 0.37125 1.8125 0.5625 C4.16408762 1.22093687 4.16408762 1.22093687 7 0 C7.66 0.33 8.32 0.66 9 1 C8.67 2.32 8.34 3.64 8 5 C3.72290301 5 2.44069624 4.29379749 -1 2 C-0.67 1.34 -0.34 0.68 0 0 Z " fill="#232A35" transform="translate(92,76)"/>
<path d="M0 0 C6.6 0 13.2 0 20 0 C20.33 0.99 20.66 1.98 21 3 C20.40574219 2.93941406 19.81148437 2.87882813 19.19921875 2.81640625 C12.80300071 2.16982122 6.40328386 1.57215654 0 1 C0 0.67 0 0.34 0 0 Z " fill="#8198A7" transform="translate(36,9)"/>
<path d="M0 0 C-1.98 2.31 -3.96 4.62 -6 7 C-6.66 5.68 -7.32 4.36 -8 3 C-7.67 2.01 -7.34 1.02 -7 0 C-4.3333581 -1.33332095 -2.83319697 -0.67102033 0 0 Z " fill="#252D32" transform="translate(126,141)"/>
<path d="M0 0 C0.66 0.33 1.32 0.66 2 1 C2.08131463 2.43655854 2.13933559 3.8744483 2.1875 5.3125 C2.22230469 6.11300781 2.25710937 6.91351563 2.29296875 7.73828125 C1.93801608 10.47851584 1.10633718 11.29171079 -1 13 C-2.0070238 7.96488101 -1.97387813 4.76052962 0 0 Z " fill="#0E292E" transform="translate(119,100)"/>
<path d="M0 0 C2.60423895 1.43682149 2.96246208 3.23737675 3.8125 6 C3.1525 6 2.4925 6 1.8125 6 C1.8125 5.34 1.8125 4.68 1.8125 4 C-2.6425 4.495 -2.6425 4.495 -7.1875 5 C-7.1875 4.34 -7.1875 3.68 -7.1875 3 C-4.74555314 1.16853986 -3.0997365 0 0 0 Z " fill="#1B4552" transform="translate(59.1875,84)"/>
<path d="M0 0 C4.75 0.75 4.75 0.75 7 3 C6.625 5.125 6.625 5.125 6 7 C5.34 6.34 4.68 5.68 4 5 C2.68252676 4.30251417 1.35085807 3.63040043 0 3 C0 2.01 0 1.02 0 0 Z " fill="#626E79" transform="translate(66,22)"/>
<path d="M0 0 C2.475 0.99 2.475 0.99 5 2 C5 2.99 5 3.98 5 5 C2.69 4.67 0.38 4.34 -2 4 C-1.34 2.68 -0.68 1.36 0 0 Z " fill="#020909" transform="translate(80,110)"/>
<path d="M0 0 C1 2 1 2 1.375 5.4375 C1.98576975 8.91888757 2.24651558 9.96481586 5 12 C3.68 12 2.36 12 1 12 C-1 10 -1 10 -1.23046875 7.87109375 C-1.20919922 6.66646484 -1.20919922 6.66646484 -1.1875 5.4375 C-1.18105469 4.63183594 -1.17460938 3.82617188 -1.16796875 2.99609375 C-1 1 -1 1 0 0 Z " fill="#4DD8DF" transform="translate(124,93)"/>
<path d="M0 0 C0.99 0.33 1.98 0.66 3 1 C2.67 1.99 2.34 2.98 2 4 C0.68 4 -0.64 4 -2 4 C-2 4.66 -2 5.32 -2 6 C-3.65 6.66 -5.3 7.32 -7 8 C-6.02133662 6.85373678 -5.04205413 5.70800212 -4.0625 4.5625 C-3.51722656 3.92441406 -2.97195312 3.28632813 -2.41015625 2.62890625 C-1.63204305 1.73008851 -0.84063472 0.84063472 0 0 Z " fill="#727F89" transform="translate(153,25)"/>
<path d="M0 0 C0.66 0.33 1.32 0.66 2 1 C-0.64 3.64 -3.28 6.28 -6 9 C-7.32 7.68 -8.64 6.36 -10 5 C-8.9171875 5.1546875 -8.9171875 5.1546875 -7.8125 5.3125 C-3.87958411 4.87550935 -2.53678077 2.89917803 0 0 Z " fill="#4E5B60" transform="translate(102,162)"/>
<path d="M0 0 C0.66 0 1.32 0 2 0 C2.061875 0.61875 2.12375 1.2375 2.1875 1.875 C2.828919 4.27761141 2.828919 4.27761141 5.5625 5.25 C6.366875 5.4975 7.17125 5.745 8 6 C5.39417629 6.93065133 4.35801776 7.14917407 1.75 6.0625 C1.1725 5.711875 0.595 5.36125 0 5 C0 3.35 0 1.7 0 0 Z " fill="#104150" transform="translate(121,103)"/>
<path d="M0 0 C1.18771723 3.42943519 0.80226223 5.37784675 -0.4375 8.75 C-0.86869141 9.94882813 -0.86869141 9.94882813 -1.30859375 11.171875 C-1.65083984 12.07679687 -1.65083984 12.07679687 -2 13 C-2.33 13 -2.66 13 -3 13 C-2.88490339 11.58249437 -2.75746342 10.16598831 -2.625 8.75 C-2.55539063 7.96109375 -2.48578125 7.1721875 -2.4140625 6.359375 C-1.98492887 3.914123 -1.21399362 2.15163097 0 0 Z " fill="#0C191D" transform="translate(118,100)"/>
<path d="M0 0 C0.66 0 1.32 0 2 0 C1.88637738 1.4800841 1.75877092 2.95910074 1.625 4.4375 C1.52058594 5.67306641 1.52058594 5.67306641 1.4140625 6.93359375 C1.27742188 7.61550781 1.14078125 8.29742187 1 9 C0.01 9.495 0.01 9.495 -1 10 C-1.125 2.25 -1.125 2.25 0 0 Z " fill="#0E2B2E" transform="translate(71,100)"/>
<path d="M0 0 C0.99 0.33 1.98 0.66 3 1 C3 2.65 3 4.3 3 6 C3.66 6.33 4.32 6.66 5 7 C4.34 7 3.68 7 3 7 C2.67 7.66 2.34 8.32 2 9 C-0.29013653 5.5647952 -0.17842973 4.014669 0 0 Z " fill="#1A1E20" transform="translate(14,99)"/>
<path d="M0 0 C3.16115776 1.36983503 3.9927092 1.9890638 6 5 C4.02 5.33 2.04 5.66 0 6 C-1.125 2.25 -1.125 2.25 0 0 Z " fill="#0A1216" transform="translate(17,54)"/>
<path d="M0 0 C1.65 1.65 3.3 3.3 5 5 C3.02 5.33 1.04 5.66 -1 6 C-1.66 5.01 -2.32 4.02 -3 3 C-2.01 2.01 -1.02 1.02 0 0 Z " fill="#455562" transform="translate(144,36)"/>
<path d="M0 0 C0.66 0.99 1.32 1.98 2 3 C0.35 4.98 -1.3 6.96 -3 9 C-3.66 8.34 -4.32 7.68 -5 7 C-3.35 4.69 -1.7 2.38 0 0 Z " fill="#3F4146" transform="translate(113,174)"/>
<path d="M0 0 C2.3125 0.1875 2.3125 0.1875 5 1 C6.8125 3.5625 6.8125 3.5625 8 6 C6.35 5.67 4.7 5.34 3 5 C3 4.34 3 3.68 3 3 C2.01 2.67 1.02 2.34 0 2 C0 1.34 0 0.68 0 0 Z " fill="#1B272D" transform="translate(75,100)"/>
<path d="M0 0 C1.175625 0.0825 2.35125 0.165 3.5625 0.25 C4.2225 1.24 4.8825 2.23 5.5625 3.25 C-0.4921875 3.4453125 -0.4921875 3.4453125 -2.4375 3.25 C-3.0975 2.59 -3.7575 1.93 -4.4375 1.25 C-3.4375 0.25 -3.4375 0.25 0 0 Z " fill="#6DE4E5" transform="translate(59.4375,89.75)"/>
<path d="M0 0 C2.875 0.6875 2.875 0.6875 6 2 C7.375 4.625 7.375 4.625 8 7 C7.01 7.33 6.02 7.66 5 8 C4.54625 7.236875 4.0925 6.47375 3.625 5.6875 C2.46175508 3.76367186 1.2470585 1.87058776 0 0 Z " fill="#17363D" transform="translate(54,115)"/>
<path d="M0 0 C0.66 0 1.32 0 2 0 C2 0.66 2 1.32 2 2 C2.5775 2.226875 3.155 2.45375 3.75 2.6875 C6.5663661 4.33038023 8.08077114 6.39533227 10 9 C8.65686601 8.35330586 7.32608822 7.68096422 6 7 C4.6696875 6.319375 4.6696875 6.319375 3.3125 5.625 C1 4 1 4 0.1875 1.8125 C0.125625 1.214375 0.06375 0.61625 0 0 Z " fill="#314349" transform="translate(32,95)"/>
<path d="M0 0 C0 2.64 0 5.28 0 8 C-0.66 8 -1.32 8 -2 8 C-2.66 6.35 -3.32 4.7 -4 3 C-1.125 0 -1.125 0 0 0 Z " fill="#176C76" transform="translate(123,95)"/>
<path d="M0 0 C0.99 0 1.98 0 3 0 C2.67 3.3 2.34 6.6 2 10 C0 8 0 8 -0.1953125 6.0546875 C-0.13020833 4.03645833 -0.06510417 2.01822917 0 0 Z " fill="#0D6674" transform="translate(49,94)"/>
<path d="M0 0 C0.66 0 1.32 0 2 0 C0.44499019 3.81684226 -2.03595495 6.19195732 -5 9 C-5.66 8.67 -6.32 8.34 -7 8 C-5.88200014 6.66079162 -4.75538103 5.32877444 -3.625 4 C-2.68527344 2.88625 -2.68527344 2.88625 -1.7265625 1.75 C-1.15679687 1.1725 -0.58703125 0.595 0 0 Z " fill="#2F393F" transform="translate(160,91)"/>
<path d="M0 0 C1.65 0 3.3 0 5 0 C4.67 1.65 4.34 3.3 4 5 C3.01 4.67 2.02 4.34 1 4 C0.01 4.495 0.01 4.495 -1 5 C-0.67 3.35 -0.34 1.7 0 0 Z " fill="#101518" transform="translate(112,53)"/>
<path d="M0 0 C0.99 0.99 1.98 1.98 3 3 C2.34 5.31 1.68 7.62 1 10 C-1.56687367 6.1496895 -0.83288724 4.41430237 0 0 Z " fill="#252A2C" transform="translate(15,51)"/>
<path d="M0 0 C0.66 0.66 1.32 1.32 2 2 C-1.465 4.97 -1.465 4.97 -5 8 C-5 7.01 -5 6.02 -5 5 C-4.34 5 -3.68 5 -3 5 C-2.87625 4.360625 -2.7525 3.72125 -2.625 3.0625 C-2.41875 2.381875 -2.2125 1.70125 -2 1 C-1.34 0.67 -0.68 0.34 0 0 Z " fill="#141A1D" transform="translate(131,44)"/>
<path d="M0 0 C0.33 1.98 0.66 3.96 1 6 C0.67 5.34 0.34 4.68 0 4 C-0.99 4 -1.98 4 -3 4 C-3.33 4.66 -3.66 5.32 -4 6 C-4.66 5.34 -5.32 4.68 -6 4 C-2.25 0 -2.25 0 0 0 Z " fill="#2B333E" transform="translate(151,19)"/>
<path d="M0 0 C1.875 0.0625 1.875 0.0625 4 1 C5.75 4.0625 5.75 4.0625 7 7 C3.63408134 5.55746343 1.48952921 3.66735273 -1 1 C-0.67 0.67 -0.34 0.34 0 0 Z " fill="#697B88" transform="translate(40,17)"/>
<path d="M0 0 C0.33 1.32 0.66 2.64 1 4 C0.01 4.66 -0.98 5.32 -2 6 C-1.49396008 3.83125748 -1.00016187 2.00032373 0 0 Z M-11 6 C-8.03 6 -5.06 6 -2 6 C-2 6.33 -2 6.66 -2 7 C-4.97 7 -7.94 7 -11 7 C-11 6.67 -11 6.34 -11 6 Z " fill="#0C6471" transform="translate(67,101)"/>
<path d="M0 0 C-0.625 1.9375 -0.625 1.9375 -2 4 C-5.125 4.75 -5.125 4.75 -8 5 C-3.375 0 -3.375 0 0 0 Z " fill="#50E3E9" transform="translate(67,101)"/>
<path d="M0 0 C0.0825 0.5775 0.165 1.155 0.25 1.75 C1.20531013 4.6159304 2.78469173 5.9990764 5 8 C4.01 8.495 4.01 8.495 3 9 C0.5 6.6875 0.5 6.6875 -2 4 C-2 3.01 -2 2.02 -2 1 C-1.34 0.67 -0.68 0.34 0 0 Z " fill="#374047" transform="translate(74,46)"/>
<path d="M0 0 C4.31392226 0.4793247 6.16569547 1.7457985 9 5 C8.67 5.66 8.34 6.32 8 7 C6.85050412 6.21366078 5.70551011 5.42073742 4.5625 4.625 C3.92441406 4.18414062 3.28632813 3.74328125 2.62890625 3.2890625 C1 2 1 2 0 0 Z " fill="#63717C" transform="translate(16,40)"/>
<path d="M0 0 C1.5 1.0625 1.5 1.0625 3 3 C3.1875 6.6875 3.1875 6.6875 3 10 C2.34 10 1.68 10 1 10 C0.7834375 8.6078125 0.7834375 8.6078125 0.5625 7.1875 C0.07899889 3.99274889 0.07899889 3.99274889 -1 1 C-0.67 0.67 -0.34 0.34 0 0 Z " fill="#0C1418" transform="translate(91,167)"/>
<path d="M0 0 C0.33 2.64 0.66 5.28 1 8 C0.01 7.67 -0.98 7.34 -2 7 C-3.1875 4.4375 -3.1875 4.4375 -4 2 C-1 0 -1 0 0 0 Z " fill="#183239" transform="translate(70,88)"/>
<path d="M0 0 C2.3125 -0.25 2.3125 -0.25 5 0 C6.8125 2 6.8125 2 8 4 C7.05125 3.814375 6.1025 3.62875 5.125 3.4375 C2.10131207 2.71313368 2.10131207 2.71313368 0 4 C0 2.68 0 1.36 0 0 Z " fill="#4C5861" transform="translate(55,47)"/>
<path d="M0 0 C1.65 0 3.3 0 5 0 C4.1875 1.9375 4.1875 1.9375 3 4 C2.01 4.33 1.02 4.66 0 5 C0 3.35 0 1.7 0 0 Z " fill="#2B3034" transform="translate(102,183)"/>
<path d="M0 0 C0.66 0.33 1.32 0.66 2 1 C2 1.99 2 2.98 2 4 C0.35 4.33 -1.3 4.66 -3 5 C-3.33 4.01 -3.66 3.02 -4 2 C-2.125 0.9375 -2.125 0.9375 0 0 Z " fill="#192126" transform="translate(89,108)"/>
<path d="M0 0 C2.475 0.495 2.475 0.495 5 1 C5 1.99 5 2.98 5 4 C5.66 4 6.32 4 7 4 C6.67 4.99 6.34 5.98 6 7 C5.34 7 4.68 7 4 7 C3.71125 6.401875 3.4225 5.80375 3.125 5.1875 C1.95257974 2.80672208 1.95257974 2.80672208 0 0 Z " fill="#0B0F10" transform="translate(26,68)"/>
<path d="M0 0 C1.98 1.65 3.96 3.3 6 5 C4.02 5.99 4.02 5.99 2 7 C1.34 4.69 0.68 2.38 0 0 Z " fill="#5B737F" transform="translate(56,9)"/>
<path d="" fill="#FFFFFF" transform="translate(0,0)"/>
</svg>
